<svg width="410" height="100" viewBox="0 0 410 100" fill="none" xmlns="http://www.w3.org/2000/svg">
<path d="M63.2815 98.1475C30.9137 98.1475 -13.8013 65.9144 4.08569 38.7178C21.9727 11.5212 88.1674 17.4491 122.15 27.6478C156.133 37.8465 200.843 65.4561 194.458 82.7713C188.073 100.086 156.722 98.1475 141.627 98.1475H63.2815Z" fill="#E3D8D2"/>
<path d="M176.133 24.9684C166.07 36.8996 196.149 53.3133 202.111 46.5494C208.074 39.7855 184.652 14.8452 176.133 24.9684Z" fill="#E3D8D2"/>
<path d="M324.57 83.3504C306.759 70.9055 310.09 33.1878 359.107 44.3082C404.551 54.6177 412.068 80.7416 408.974 87.3544C404.068 97.8301 379.852 101.31 354.146 95.2112C343.112 92.5973 335.937 91.3029 324.57 83.3504Z" fill="#E3D8D2"/>
<path d="M184.094 94.9594C179.304 88.9766 176.684 81.5439 176.662 73.877H213.196C213.174 81.5439 210.554 88.9766 205.764 94.9594" stroke="black" stroke-width="2" stroke-miterlimit="10"/>
<path d="M213.196 73.877H219.888C220.532 73.877 221.15 74.1332 221.606 74.5894C222.062 75.0456 222.318 75.6644 222.318 76.3095V82.0561C222.318 82.7013 222.062 83.32 221.606 83.7762C221.15 84.2324 220.532 84.4887 219.888 84.4887H211.334" stroke="black" stroke-width="2" stroke-miterlimit="10"/>
<path d="M177.744 98.233H212.114C218.223 98.233 218.223 94.9795 218.223 94.9795H171.636C171.636 94.9795 171.636 98.233 177.744 98.233Z" stroke="black" stroke-width="2" stroke-miterlimit="10"/>
<path d="M146.332 98.233H124.606C123.337 98.2324 122.085 97.9399 120.946 97.3781C119.808 96.8164 118.813 96.0003 118.04 94.9929C117.266 93.9855 116.734 92.8137 116.485 91.5679C116.235 90.3221 116.275 89.0356 116.601 87.8076L122.513 65.5618H148.451L154.383 87.7874C154.714 89.0204 154.755 90.3132 154.505 91.565C154.255 92.8169 153.72 93.994 152.941 95.0048C152.162 96.0156 151.16 96.8328 150.014 97.3927C148.868 97.9526 147.608 98.2402 146.332 98.233V98.233Z" stroke="black" stroke-width="2" stroke-miterlimit="10"/>
<path d="M122.514 65.5416V60.1073H148.451V65.5416H157.775C158.437 65.542 159.087 65.7214 159.655 66.0608C160.224 66.4002 160.691 66.887 161.006 67.4699C161.322 68.0527 161.474 68.71 161.447 69.3723C161.42 70.0346 161.215 70.6773 160.854 71.2327C159.475 73.3531 158.006 75.5842 157.045 76.9843C154.756 80.3285 152.567 82.5496 153.714 84.9217C154.811 87.1881 159.752 87.3341 160.758 81.6631" stroke="black" stroke-width="2" stroke-miterlimit="10"/>
<path d="M122.509 60.1071L116.924 54.5369L150.469 56.3349L148.451 60.1071" stroke="black" stroke-width="2" stroke-miterlimit="10"/>
<path d="M123.958 86.8154L123.264 90.5071" stroke="black" stroke-width="2" stroke-miterlimit="10"/>
<path d="M126.68 72.4114L124.728 82.7461" stroke="black" stroke-width="2" stroke-miterlimit="10"/>
<path d="M123.762 98.2329H102.906C100.929 98.233 98.9778 97.7782 97.2038 96.9037C95.4297 96.0291 93.8802 94.7582 92.6748 93.189C91.4694 91.6199 90.6404 89.7944 90.2517 87.8536C89.8631 85.9128 89.9252 83.9085 90.4332 81.9955L99.6409 47.335H127.027L129.121 55.2119" stroke="black" stroke-width="2" stroke-miterlimit="10"/>
<path d="M135.51 9.44102C137.839 9.44102 139.727 7.55144 139.727 5.22051C139.727 2.88959 137.839 1 135.51 1C133.182 1 131.294 2.88959 131.294 5.22051C131.294 7.55144 133.182 9.44102 135.51 9.44102Z" stroke="black" stroke-width="2" stroke-miterlimit="10"/>
<path d="M134.389 9.28491L124.467 47.3148" stroke="black" stroke-width="2" stroke-miterlimit="10"/>
<path d="M122.992 27.2549C125.32 27.2549 127.208 25.3653 127.208 23.0344C127.208 20.7034 125.32 18.8138 122.992 18.8138C120.663 18.8138 118.775 20.7034 118.775 23.0344C118.775 25.3653 120.663 27.2549 122.992 27.2549Z" stroke="black" stroke-width="2" stroke-miterlimit="10"/>
<path d="M122.348 27.2498L120.149 47.058" stroke="black" stroke-width="2" stroke-miterlimit="10"/>
<path d="M111.383 34.1748C113.712 34.1748 115.6 32.2852 115.6 29.9543C115.6 27.6234 113.712 25.7338 111.383 25.7338C109.055 25.7338 107.167 27.6234 107.167 29.9543C107.167 32.2852 109.055 34.1748 111.383 34.1748Z" stroke="black" stroke-width="2" stroke-miterlimit="10"/>
<path d="M105.341 18.2096C107.67 18.2096 109.558 16.32 109.558 13.9891C109.558 11.6581 107.67 9.76855 105.341 9.76855C103.013 9.76855 101.125 11.6581 101.125 13.9891C101.125 16.32 103.013 18.2096 105.341 18.2096Z" stroke="black" stroke-width="2" stroke-miterlimit="10"/>
<path d="M104.682 18.2043C104.74 18.4895 104.771 18.7796 104.773 19.0706C104.773 19.9049 104.526 20.7205 104.063 21.4144C103.6 22.1082 102.942 22.6491 102.172 22.9689C101.402 23.2886 100.555 23.3728 99.7374 23.2107C98.9197 23.0487 98.1684 22.6477 97.5784 22.0585C96.9883 21.4693 96.5859 20.7182 96.4221 19.9001C96.2583 19.0821 96.3403 18.2338 96.6579 17.4625C96.9755 16.6911 97.5144 16.0312 98.2064 15.5663C98.8985 15.1013 99.7127 14.8521 100.546 14.8501C100.763 14.8514 100.98 14.8683 101.195 14.9005" stroke="black" stroke-width="2" stroke-miterlimit="10"/>
<path d="M111.385 34.1748V47.0579" stroke="black" stroke-width="2" stroke-miterlimit="10"/>
<path d="M106.217 18.2045L108.551 47.3149" stroke="black" stroke-width="2" stroke-miterlimit="10"/>
<path d="M101.468 23.291L104.773 47.3147" stroke="black" stroke-width="2" stroke-miterlimit="10"/>
<path d="M339.61 61.2759H296.51C291.94 66.4925 289.619 73.3069 290.051 80.2312C290.484 87.1554 293.636 93.6271 298.819 98.2331H338.156C340.916 95.7584 343.126 92.7315 344.643 89.348C346.161 85.9645 346.952 82.2999 346.966 78.5911C346.986 72.2079 344.631 66.0459 340.359 61.3061L339.61 61.2759Z" stroke="black" stroke-width="2" stroke-miterlimit="10"/>
<path d="M300.123 61.2758L297.119 54.7486L308.993 48.7301L312.118 54.2802" stroke="black" stroke-width="2" stroke-miterlimit="10"/>
<path d="M307.555 61.2759L308.858 53.8372L322.302 55.6754L321.572 61.2759" stroke="black" stroke-width="2" stroke-miterlimit="10"/>
<path d="M314.925 54.6682L316.535 50.7297L329.667 55.7611L327.655 61.276" stroke="black" stroke-width="2" stroke-miterlimit="10"/>
<path d="M324.058 53.6105L335.645 52.0139L336.933 61.2759" stroke="black" stroke-width="2" stroke-miterlimit="10"/>
<path d="M332.048 52.5126L341.915 30.438" stroke="black" stroke-width="2" stroke-miterlimit="10"/>
<path d="M342.915 30.4379C343.99 30.4379 344.862 29.5652 344.862 28.4888C344.862 27.4123 343.99 26.5397 342.915 26.5397C341.84 26.5397 340.968 27.4123 340.968 28.4888C340.968 29.5652 341.84 30.4379 342.915 30.4379Z" stroke="black" stroke-width="2" stroke-miterlimit="10"/>
<path d="M298.407 74.1588C298.407 74.1588 296.213 82.2523 301.149 87.7571" stroke="black" stroke-width="2" stroke-miterlimit="10"/>
</svg>
