<svg width="414" height="88" viewBox="0 0 414 88" fill="none" xmlns="http://www.w3.org/2000/svg">
<path d="M64.685 88C29.6184 88 -14.6558 65.9048 4.72266 36.172C24.1011 6.43917 96.832 17.39 133.648 28.5398C178.35 43.1203 205.49 50.9596 200.387 68.2274C186.39 85.0375 165.916 88 149.563 88H64.685Z" fill="#E3D8D2"/>
<path d="M167.537 17.1489C162.079 35.6465 204.48 38.8245 207.868 28.2075C211.255 17.5905 172.146 1.46441 167.537 17.1489Z" fill="#E3D8D2"/>
<path d="M216.873 73.2716C196.68 59.212 205.581 26.2365 261.15 38.7997C317.683 61.8052 316.066 70.3243 312.558 77.7951C306.997 89.63 285.081 86.6713 250.401 86.6713C237.892 83.7182 229.758 82.2559 216.873 73.2716Z" fill="#E3D8D2"/>
<path d="M309.677 72.0001C306.9 72.0001 297.035 72.0001 294 72.0001V11.0001H366C366 34.822 366 48.1781 366 72.0001C350.59 72.0001 338.891 72.0001 326.835 72.0001" stroke="black" stroke-width="2"/>
<path d="M318.5 85C323.747 85 328 80.7467 328 75.5C328 70.2533 323.747 66 318.5 66C313.253 66 309 70.2533 309 75.5C309 80.7467 313.253 85 318.5 85Z" stroke="black" stroke-width="2" stroke-miterlimit="10"/>
<path d="M388.5 85C393.747 85 398 80.7467 398 75.5C398 70.2533 393.747 66 388.5 66C383.253 66 379 70.2533 379 75.5C379 80.7467 383.253 85 388.5 85Z" stroke="black" stroke-width="2" stroke-miterlimit="10"/>
<path d="M293 61H366" stroke="black" stroke-width="2"/>
<path d="M293 66H287V70H293" stroke="black" stroke-width="2"/>
<path d="M300 36V17H357" stroke="black" stroke-width="2"/>
<path d="M357 72H379.158M366.266 23C366.266 23 389.224 23 394.666 23C400.108 23 398.073 28.0315 394.666 30.9459H388.815L398.496 48.1622H413C413 57.4714 413 62.6907 413 72H398.496M382.083 30.9459H372.167V48.1622H388.815L382.083 30.9459Z" stroke="black" stroke-width="2"/>
</svg>
