<svg width="257" height="149" viewBox="0 0 257 149" fill="none" xmlns="http://www.w3.org/2000/svg">
<path d="M65.2043 148.44C31.8531 148.44 -14.2207 115.441 4.20984 87.5981C22.6404 59.7554 90.8464 65.8241 125.862 76.2651C160.877 86.7061 206.946 114.972 200.367 132.698C193.788 150.425 161.484 148.44 145.931 148.44H65.2043Z" fill="#E3D8D2"/>
<path d="M232.611 146.506H200.314C198.427 146.505 196.565 146.066 194.872 145.224C193.18 144.381 191.702 143.157 190.552 141.647C189.402 140.136 188.611 138.378 188.24 136.51C187.869 134.641 187.929 132.712 188.413 130.87L197.202 97.5061H235.76L244.579 130.84C245.07 132.689 245.133 134.628 244.761 136.505C244.389 138.383 243.593 140.148 242.435 141.664C241.277 143.18 239.788 144.406 238.084 145.246C236.38 146.085 234.507 146.517 232.611 146.506V146.506Z" stroke="black" stroke-width="2" stroke-miterlimit="10"/>
<path d="M197 97.5707V89.5061H236.303V97.5707H250.431C251.434 97.5714 252.419 97.8376 253.28 98.3413C254.142 98.845 254.85 99.5674 255.327 100.432C255.805 101.297 256.036 102.273 255.995 103.256C255.955 104.238 255.644 105.192 255.097 106.017C253.008 109.163 250.781 112.474 249.325 114.552C245.856 119.515 242.539 122.811 244.278 126.331C245.94 129.695 253.427 129.912 254.952 121.496" stroke="black" stroke-width="2" stroke-miterlimit="10"/>
<path d="M197.325 89.5061L189 81.5061L239 84.0884L235.993 89.5061" stroke="black" stroke-width="2" stroke-miterlimit="10"/>
<path d="M200 129.506L199 134.506" stroke="black" stroke-width="2" stroke-miterlimit="10"/>
<path d="M204 107.506L201 123.506" stroke="black" stroke-width="2" stroke-miterlimit="10"/>
<path d="M199.055 146.506H168.135C165.203 146.506 162.31 145.827 159.68 144.521C157.05 143.215 154.753 141.318 152.966 138.975C151.179 136.632 149.949 133.906 149.373 131.008C148.797 128.11 148.889 125.117 149.642 122.261L163.294 70.5061H203.897L207 82.2678" stroke="black" stroke-width="2" stroke-miterlimit="10"/>
<path d="M217 14.5061C220.314 14.5061 223 11.596 223 8.0061C223 4.41625 220.314 1.5061 217 1.5061C213.686 1.5061 211 4.41625 211 8.0061C211 11.596 213.686 14.5061 217 14.5061Z" stroke="black" stroke-width="2" stroke-miterlimit="10"/>
<path d="M215 13.5061L200 70.5061" stroke="black" stroke-width="2" stroke-miterlimit="10"/>
<path d="M198 40.5061C201.314 40.5061 204 37.8198 204 34.5061C204 31.1924 201.314 28.5061 198 28.5061C194.686 28.5061 192 31.1924 192 34.5061C192 37.8198 194.686 40.5061 198 40.5061Z" stroke="black" stroke-width="2" stroke-miterlimit="10"/>
<path d="M197 40.5061L194 70.5061" stroke="black" stroke-width="2" stroke-miterlimit="10"/>
<path d="M181 50.5061C184.314 50.5061 187 47.8198 187 44.5061C187 41.1924 184.314 38.5061 181 38.5061C177.686 38.5061 175 41.1924 175 44.5061C175 47.8198 177.686 50.5061 181 50.5061Z" stroke="black" stroke-width="2" stroke-miterlimit="10"/>
<path d="M172 27.5061C175.314 27.5061 178 24.596 178 21.0061C178 17.4163 175.314 14.5061 172 14.5061C168.686 14.5061 166 17.4163 166 21.0061C166 24.596 168.686 27.5061 172 27.5061Z" stroke="black" stroke-width="2" stroke-miterlimit="10"/>
<path d="M170.86 27.2746C170.95 27.6799 170.997 28.0924 171 28.5061C171 29.6922 170.619 30.8517 169.906 31.838C169.192 32.8244 168.178 33.5935 166.991 34.048C165.804 34.5026 164.498 34.6222 163.238 34.3919C161.977 34.1615 160.819 33.5915 159.909 32.7538C159 31.9161 158.379 30.8483 158.127 29.6854C157.874 28.5225 158.001 27.3165 158.49 26.2199C158.98 25.1233 159.811 24.1852 160.878 23.5242C161.944 22.8632 163.2 22.5089 164.484 22.5061C164.819 22.508 165.154 22.532 165.485 22.5777" stroke="black" stroke-width="2" stroke-miterlimit="10"/>
<path d="M181 50.5061V70.5061" stroke="black" stroke-width="2" stroke-miterlimit="10"/>
<path d="M173 27.5061L177 70.5061" stroke="black" stroke-width="2" stroke-miterlimit="10"/>
<path d="M166 34.5061L171 70.5061" stroke="black" stroke-width="2" stroke-miterlimit="10"/>
<path d="M111.322 32.5779C93.5569 49.3038 137.327 80.182 147.798 70.7462C158.269 61.3103 126.364 18.3831 111.322 32.5779Z" fill="#E3D8D2"/>
</svg>
