<svg width="311" height="128" viewBox="0 0 311 128" fill="none" xmlns="http://www.w3.org/2000/svg">
<path d="M136.614 108.08C108.77 88.6252 121.043 42.9961 197.669 60.3801C275.624 92.2134 273.395 104.002 268.558 114.339C260.889 130.715 230.669 126.621 182.847 126.621C165.598 122.535 154.382 120.512 136.614 108.08Z" fill="#E3D8D2"/>
<path d="M288.63 120.506C296.47 110.724 300.76 98.5719 300.8 86.0359H241C241.038 98.5753 245.328 110.731 253.17 120.516" stroke="black" stroke-width="2" stroke-miterlimit="10"/>
<path d="M241 86.0359H230C228.939 86.0359 227.922 86.4573 227.172 87.2075C226.421 87.9576 226 88.975 226 90.0359V99.4359C226 100.497 226.421 101.514 227.172 102.264C227.922 103.014 228.939 103.436 230 103.436H244" stroke="black" stroke-width="2" stroke-miterlimit="10"/>
<path d="M278.37 18.5861C280.07 13.9561 280.76 8.1461 279.37 0.506104" stroke="black" stroke-width="2" stroke-miterlimit="10"/>
<path d="M266.276 74.1562C266.276 74.1562 273.536 69.7362 273.536 61.7662C273.536 53.7962 263.416 49.1962 263.446 41.9362C263.446 37.6962 266.676 34.5762 270.616 30.3362" stroke="black" stroke-width="2" stroke-miterlimit="10"/>
<path d="M273.54 44.5061C273.54 44.5061 282.44 50.1761 280.12 63.2761" stroke="black" stroke-width="2" stroke-miterlimit="10"/>
<path d="M299.03 125.826H242.77C232.77 125.826 232.77 120.506 232.77 120.506H309.03C309.03 120.506 309.03 125.826 299.03 125.826Z" stroke="black" stroke-width="2" stroke-miterlimit="10"/>
<path d="M86.1932 89.2365C70.4621 107.888 117.482 133.547 126.803 122.973C136.124 112.399 99.5095 73.4114 86.1932 89.2365Z" fill="#E3D8D2"/>
</svg>
