<svg width="201" height="154" viewBox="0 0 201 154" fill="none" xmlns="http://www.w3.org/2000/svg">
<path d="M13.6136 131.08C-14.2304 111.625 -1.95708 65.9961 74.6689 83.3801C152.624 115.213 150.395 127.002 145.558 137.339C137.889 153.715 107.669 149.621 59.8472 149.621C42.5981 145.535 31.3818 143.512 13.6136 131.08Z" fill="#E3D8D2"/>
<path d="M139 152.506H97.2566L90 92.5061" stroke="black" stroke-width="2" stroke-miterlimit="10"/>
<path d="M142 92.5061L139 116.506" stroke="black" stroke-width="2" stroke-miterlimit="10"/>
<path d="M146.374 80.5061H80.6259C79.7279 80.5061 79 81.3404 79 82.3695V90.6427C79 91.6718 79.7279 92.5061 80.6259 92.5061H146.374C147.272 92.5061 148 91.6718 148 90.6427V82.3695C148 81.3404 147.272 80.5061 146.374 80.5061Z" stroke="black" stroke-width="2" stroke-miterlimit="10"/>
<path d="M89 11.5061C89 11.5061 116.354 51.1343 119 80.5061" stroke="black" stroke-width="2" stroke-miterlimit="10"/>
<path d="M122.054 62.7952C116.023 67.6017 102.678 73.0023 90.555 55.2918C75.5464 33.3623 82.7075 1.5061 82.7075 1.5061C82.7075 1.5061 116.642 10.358 125 40.9792" stroke="black" stroke-width="2" stroke-miterlimit="10"/>
<path d="M100 31.5061C100 31.5061 107.106 23.2253 110 15.5061" stroke="black" stroke-width="2" stroke-miterlimit="10"/>
<path d="M105 39.5061C105 39.5061 113.724 27.3531 115 21.5061" stroke="black" stroke-width="2" stroke-miterlimit="10"/>
<path d="M85 44.5061C85 44.5061 90.5022 48.9958 100 48.462" stroke="black" stroke-width="2" stroke-miterlimit="10"/>
<path d="M80.9284 16.5061C80.9284 16.5061 70.6164 39.1381 77.1928 56.1088C83.0966 71.3369 95.8109 69.8317 101 65.7298" stroke="black" stroke-width="2" stroke-miterlimit="10"/>
<path d="M97 67.5061C97 67.5061 99.634 74.802 100 80.5061" stroke="black" stroke-width="2" stroke-miterlimit="10"/>
<path d="M104 66.5061C104.639 71.0602 104.975 75.769 105 80.5061" stroke="black" stroke-width="2" stroke-miterlimit="10"/>
<path d="M142.227 14.5061C142.227 14.5061 122.73 29.6969 124.066 50.5529C125.401 71.4089 138.596 68.441 143.677 60.5989C149.477 51.6481 152.516 38.7085 142.227 14.5061Z" stroke="black" stroke-width="2" stroke-miterlimit="10"/>
<path d="M138 32.5061C138 32.5061 132.078 45.4693 130 80.5061" stroke="black" stroke-width="2" stroke-miterlimit="10"/>
<path d="M134 49.5061C134 49.5061 142.263 48.405 149 42.5061" stroke="black" stroke-width="2" stroke-miterlimit="10"/>
<path d="M127.972 133.883L146.837 104.506H163.163L182.028 133.883C183.158 135.644 183.831 137.717 183.972 139.875C184.113 142.034 183.717 144.193 182.827 146.118C181.938 148.042 180.589 149.656 178.929 150.783C177.269 151.91 175.362 152.506 173.417 152.506H136.613C134.666 152.512 132.755 151.921 131.091 150.796C129.426 149.672 128.073 148.058 127.18 146.133C126.286 144.207 125.887 142.045 126.027 139.884C126.167 137.723 126.84 135.646 127.972 133.883V133.883Z" stroke="black" stroke-width="2" stroke-miterlimit="10"/>
<path d="M147 104.506H127.313C125.848 104.505 124.41 104.915 123.143 105.697C121.875 106.479 120.825 107.604 120.097 108.957C119.37 110.311 118.991 111.846 119 113.406C119.009 114.965 119.405 116.495 120.147 117.839L128.22 132.506" stroke="black" stroke-width="2" stroke-miterlimit="10"/>
<path d="M176 123.592L186.055 108.149C186.787 107.023 187.756 106.105 188.881 105.471C190.006 104.837 191.253 104.506 192.519 104.506H200V107.802H194.78C193.894 107.801 193.028 108.093 192.298 108.639C191.567 109.186 191.005 109.962 190.687 110.864L182.525 133.506" stroke="black" stroke-width="2" stroke-miterlimit="10"/>
<path d="M171 133.506L175 140.506" stroke="black" stroke-width="2" stroke-miterlimit="10"/>
<path d="M162 115.506L169 127.506" stroke="black" stroke-width="2" stroke-miterlimit="10"/>
</svg>
