<svg width="25" height="9" viewBox="0 0 25 9" fill="none" xmlns="http://www.w3.org/2000/svg">
<path d="M18.75 4.5H24L18.75 1V4.5Z" fill="#FFA319"/>
<path d="M18.75 8L24 4.5H18.75V8Z" fill="#FFA319"/>
<path d="M24 4.5L24.2773 4.91603L24.9014 4.5L24.2773 4.08397L24 4.5ZM18.75 1L19.0273 0.583975L18.25 0.0657415V1H18.75ZM18.75 8H18.25V8.93426L19.0273 8.41603L18.75 8ZM24.2773 4.08397L19.0273 0.583975L18.4727 1.41603L23.7227 4.91603L24.2773 4.08397ZM23.7227 4.08397L18.4727 7.58397L19.0273 8.41603L24.2773 4.91603L23.7227 4.08397ZM18.75 5H24V4H18.75V5ZM18.25 1V4.5H19.25V1H18.25ZM18.25 4.5V8H19.25V4.5H18.25ZM0 5H18.75V4H0V5Z" fill="#FFA319"/>
</svg>
