<svg width="119" height="99" viewBox="0 0 119 99" fill="none" xmlns="http://www.w3.org/2000/svg">
<path d="M82.8634 1.50027C82.2436 1.5093 81.653 1.74717 81.2211 2.16168C80.7893 2.57619 80.5515 3.13348 80.56 3.71122C80.56 5.64892 80.1258 6.64337 79.5271 7.43449C78.9284 8.2256 78.0283 8.86259 76.8626 9.63692C75.6969 10.4113 74.2615 11.3194 73.1012 12.8234C71.941 14.3274 71.2 16.3847 71.2 18.9792C71.1956 19.2682 71.2529 19.5551 71.3685 19.8234C71.4842 20.0916 71.6558 20.3357 71.8735 20.5415C72.0913 20.7473 72.3507 20.9108 72.6368 21.0224C72.9229 21.1339 73.2299 21.1914 73.54 21.1914C73.8501 21.1914 74.1571 21.1339 74.4432 21.0224C74.7293 20.9108 74.9887 20.7473 75.2065 20.5415C75.4242 20.3357 75.5958 20.0916 75.7115 19.8234C75.8271 19.5551 75.8844 19.2682 75.88 18.9792C75.88 17.0925 76.309 16.1419 76.9037 15.3709C77.4985 14.5999 78.4031 13.9698 79.5774 13.1898C80.7516 12.4098 82.1916 11.476 83.3479 9.9479C84.5042 8.41985 85.24 6.343 85.24 3.71122C85.2443 3.41941 85.1857 3.12976 85.0677 2.85943C84.9498 2.5891 84.7748 2.34358 84.5532 2.13742C84.3316 1.93126 84.0678 1.76864 83.7776 1.65919C83.4873 1.54975 83.1765 1.49571 82.8634 1.50027ZM92.2234 8.04367C91.6036 8.0527 91.013 8.29058 90.5811 8.70509C90.1493 9.1196 89.9115 9.67688 89.92 10.2546C89.92 11.4008 89.6647 11.9258 89.271 12.4315C88.8773 12.9372 88.2278 13.425 87.3561 14.029C86.4843 14.633 85.3899 15.3467 84.463 16.5041C83.5362 17.6615 82.9 19.2734 82.9 21.1603C82.8956 21.4493 82.9529 21.7363 83.0685 22.0045C83.1842 22.2727 83.3558 22.5168 83.5735 22.7226C83.7913 22.9285 84.0507 23.0919 84.3368 23.2035C84.6229 23.315 84.9299 23.3725 85.24 23.3725C85.5501 23.3725 85.8571 23.315 86.1432 23.2035C86.4293 23.0919 86.6887 22.9285 86.9064 22.7226C87.1242 22.5168 87.2958 22.2727 87.4115 22.0045C87.5271 21.7363 87.5844 21.4493 87.58 21.1603C87.58 20.0732 87.8213 19.6018 88.2107 19.1155C88.6001 18.6291 89.2607 18.1385 90.1439 17.5265C91.0272 16.9145 92.1327 16.1768 93.0552 14.9918C93.9778 13.8068 94.6 12.1762 94.6 10.2546C94.6043 9.96281 94.5457 9.67316 94.4277 9.40283C94.3098 9.1325 94.1348 8.88699 93.9132 8.68082C93.6916 8.47466 93.4278 8.31204 93.1376 8.2026C92.8473 8.09315 92.5365 8.03911 92.2234 8.04367ZM59.5 27.7037C58.8794 27.7038 58.2843 27.9336 57.8454 28.3426C57.4066 28.7516 57.1601 29.3064 57.16 29.8848V39.9896C55.8091 39.2116 54.3072 38.6587 52.6125 38.6349C50.7096 36.1162 47.8358 34.2471 44.29 34.2471C40.3309 34.2471 36.9123 36.329 35.1174 39.3634C33.9774 38.8988 32.7391 38.6094 31.42 38.6094C29.6751 38.6094 28.1288 39.1794 26.74 39.9555C25.3512 39.1794 23.8049 38.6094 22.06 38.6094C17.6055 38.6094 14.0236 41.6183 13.0976 45.5234C9.68659 46.2261 7.05305 48.5673 6.15531 51.6962H3.34C2.71941 51.6962 2.12426 51.9261 1.68544 52.3351C1.24662 52.7441 1.00006 53.2989 1 53.8773L1 60.2205C1 69.0466 6.12987 76.7138 12.7686 82.2321H3.34C2.95785 82.2324 2.58161 82.32 2.24416 82.4872C1.9067 82.6543 1.61829 82.896 1.40413 83.191C1.18998 83.486 1.05658 83.8254 1.01561 84.1796C0.974644 84.5337 1.02734 84.8918 1.1691 85.2226L3.82902 91.4295C5.39872 95.0901 9.21861 97.5 13.4495 97.5H105.55C109.781 97.5 113.599 95.088 115.171 91.4295L117.831 85.2226C117.973 84.8918 118.025 84.5337 117.984 84.1796C117.943 83.8254 117.81 83.486 117.596 83.191C117.382 82.896 117.093 82.6543 116.756 82.4872C116.418 82.32 116.042 82.2324 115.66 82.2321H101.241C102.755 79.6034 103.692 76.5539 103.896 73.2775C106.485 72.772 108.715 71.4423 110.418 69.6778C112.603 67.414 114.091 64.4926 115.189 61.3537C117.386 55.0757 118 47.8551 118 42.9716C118 39.3837 114.829 36.4282 110.98 36.4282H103.96V29.8848C103.96 29.3064 103.713 28.7516 103.275 28.3426C102.836 27.9336 102.241 27.7038 101.62 27.7037H59.5ZM61.84 32.066H99.28V70.96C99.2382 71.1956 99.2382 71.4359 99.28 71.6715V71.9271C99.28 76.0399 97.7417 79.6097 95.5232 82.2321H65.6105C63.9409 80.2667 62.6529 77.768 62.1142 74.9048C61.9353 73.9508 61.84 72.9553 61.84 71.9271V53.8773V41.5573V32.066ZM44.29 38.6094C46.6555 38.6094 48.653 39.9104 49.5824 41.7788C49.7879 42.1924 50.1271 42.5356 50.5526 42.7602C50.978 42.9849 51.4682 43.0797 51.9544 43.0313C52.3444 42.992 52.5006 42.9716 52.48 42.9716C53.81 42.9716 54.9769 43.4805 55.8346 44.3093C56.1898 44.6514 56.6552 44.8758 57.16 44.9483V51.6962H11.3198C12.141 50.4658 13.3483 49.515 15.04 49.515C15.6606 49.515 16.2557 49.2852 16.6946 48.8761C17.1334 48.4671 17.3799 47.9124 17.38 47.3339C17.38 44.8983 19.447 42.9716 22.06 42.9716C23.2603 42.9716 24.3206 43.3942 25.1724 44.1091C25.6024 44.4706 26.1609 44.6708 26.74 44.6708C27.3191 44.6708 27.8776 44.4706 28.3076 44.1091C29.1594 43.3942 30.2197 42.9716 31.42 42.9716C32.6774 42.9716 33.7927 43.4293 34.6421 44.1857C34.946 44.4559 35.3224 44.6448 35.7316 44.7326C36.1408 44.8205 36.5679 44.8041 36.968 44.6852C37.3681 44.5662 37.7265 44.3491 38.0056 44.0566C38.2847 43.7641 38.4742 43.407 38.5543 43.0228C39.0756 40.5087 41.4165 38.6094 44.29 38.6094ZM103.96 40.7905H110.98C112.302 40.7905 113.32 41.7392 113.32 42.9716C113.32 47.4932 112.679 54.4508 110.738 59.999C109.767 62.7731 108.468 65.1764 106.94 66.7596C106.017 67.7161 105.05 68.3503 103.96 68.732V40.7905ZM5.68 56.0584H8.02H57.16V71.9271C57.16 72.4506 57.1875 72.9629 57.2331 73.4692C57.4616 76.6735 58.3943 79.6545 59.8793 82.2321H20.3598C12.4641 77.4358 5.68 69.2062 5.68 60.2205V56.0584ZM6.79516 86.5943H19.5783H64.212H64.3308H96.8074H112.205L110.825 89.8064C109.958 91.8232 107.881 93.1377 105.55 93.1377H13.4495C11.1191 93.1377 9.03929 91.8253 8.17539 89.8106V89.8064L6.79516 86.5943Z" fill="black" stroke="white" stroke-width="1.5"/>
</svg>
