<svg width="113" height="99" viewBox="0 0 113 99" fill="none" xmlns="http://www.w3.org/2000/svg">
<path d="M79.0647 0.264433C78.4661 0.273699 77.8956 0.517761 77.4785 0.943054C77.0614 1.36835 76.8318 1.94013 76.84 2.5329C76.84 4.521 76.4206 5.54132 75.8424 6.35301C75.2642 7.1647 74.3949 7.81826 73.269 8.61273C72.1431 9.4072 70.7568 10.339 69.6363 11.8821C68.5157 13.4252 67.8 15.536 67.8 18.198C67.7958 18.4945 67.8511 18.7889 67.9628 19.0641C68.0744 19.3393 68.2402 19.5898 68.4505 19.801C68.6608 20.0122 68.9114 20.1798 69.1877 20.2943C69.464 20.4088 69.7605 20.4677 70.06 20.4677C70.3595 20.4677 70.656 20.4088 70.9323 20.2943C71.2086 20.1798 71.4592 20.0122 71.6695 19.801C71.8798 19.5898 72.0456 19.3393 72.1572 19.0641C72.2689 18.7889 72.3242 18.4945 72.32 18.198C72.32 16.2622 72.7343 15.2869 73.3087 14.4959C73.8832 13.7048 74.7569 13.0583 75.891 12.258C77.0251 11.4577 78.4158 10.4996 79.5326 8.9318C80.6494 7.36401 81.36 5.23313 81.36 2.5329C81.3641 2.23349 81.3076 1.93631 81.1936 1.65895C81.0797 1.38159 80.9107 1.12969 80.6967 0.91816C80.4826 0.706634 80.2279 0.539786 79.9476 0.427495C79.6673 0.315205 79.367 0.259757 79.0647 0.264433ZM88.1047 6.97804C87.5061 6.9873 86.9356 7.23137 86.5185 7.65666C86.1014 8.08195 85.8718 8.65373 85.88 9.2465C85.88 10.4225 85.6334 10.9612 85.2532 11.48C84.873 11.9988 84.2456 12.4994 83.4037 13.1191C82.5618 13.7388 81.5047 14.471 80.6096 15.6585C79.7145 16.846 79.1 18.4999 79.1 20.4358C79.0958 20.7324 79.1511 21.0268 79.2628 21.302C79.3744 21.5772 79.5402 21.8276 79.7505 22.0388C79.9608 22.25 80.2114 22.4177 80.4877 22.5322C80.764 22.6466 81.0605 22.7056 81.36 22.7056C81.6595 22.7056 81.956 22.6466 82.2323 22.5322C82.5086 22.4177 82.7592 22.25 82.9695 22.0388C83.1798 21.8276 83.3456 21.5772 83.4572 21.302C83.5689 21.0268 83.6242 20.7324 83.62 20.4358C83.62 19.3205 83.853 18.8368 84.2291 18.3378C84.6053 17.8389 85.2432 17.3354 86.0963 16.7075C86.9494 16.0796 88.017 15.3227 88.908 14.1069C89.7991 12.8911 90.4 11.2181 90.4 9.2465C90.4041 8.9471 90.3476 8.64992 90.2336 8.37255C90.1197 8.09519 89.9507 7.84329 89.7367 7.63177C89.5226 7.42024 89.2679 7.25339 88.9876 7.1411C88.7073 7.02881 88.407 6.97336 88.1047 6.97804ZM56.5 27.1494C55.9006 27.1495 55.3258 27.3853 54.902 27.805C54.4782 28.2246 54.2401 28.7938 54.24 29.3873V39.7549C52.9353 38.9566 51.4847 38.3894 49.848 38.365C48.0101 35.7808 45.2345 33.8631 41.81 33.8631C37.9863 33.8631 34.6846 35.9991 32.951 39.1124C31.8499 38.6358 30.654 38.3388 29.38 38.3388C27.6947 38.3388 26.2014 38.9236 24.86 39.72C23.5186 38.9236 22.0253 38.3388 20.34 38.3388C16.0378 38.3388 12.5783 41.426 11.684 45.4327C8.38961 46.1537 5.84611 48.5558 4.97906 51.766H2.26C1.66063 51.7661 1.08582 52.0019 0.662005 52.4215C0.238186 52.8412 5.99281e-05 53.4104 0 54.0039L0 60.512C0 69.5677 4.95449 77.4344 11.3662 83.0962H2.26C1.89092 83.0965 1.52754 83.1864 1.20162 83.3579C0.8757 83.5294 0.597153 83.7773 0.390317 84.08C0.183481 84.3827 0.0546498 84.7309 0.0150801 85.0943C-0.0244895 85.4577 0.0264062 85.8251 0.16332 86.1645L2.7323 92.5328C4.24834 96.2887 7.93763 98.7612 12.0239 98.7612H100.976C105.062 98.7612 108.75 96.2865 110.268 92.5328L112.837 86.1645C112.974 85.8251 113.024 85.4577 112.985 85.0943C112.945 84.7309 112.817 84.3827 112.61 84.08C112.403 83.7773 112.124 83.5294 111.798 83.3579C111.472 83.1864 111.109 83.0965 110.74 83.0962H96.8136C98.2763 80.3991 99.1807 77.2703 99.3782 73.9087C101.879 73.39 104.032 72.0257 105.677 70.2153C107.787 67.8927 109.225 64.8953 110.285 61.6747C112.407 55.2335 113 47.825 113 42.8145C113 39.1333 109.938 36.1009 106.22 36.1009H99.44V29.3873C99.4399 28.7938 99.2018 28.2246 98.778 27.805C98.3542 27.3853 97.7794 27.1495 97.18 27.1494H56.5ZM58.76 31.6252H94.92V71.5309C94.8797 71.7726 94.8797 72.0192 94.92 72.2609V72.5231C94.92 76.7429 93.4343 80.4056 91.2916 83.0962H62.4016C60.7891 81.0797 59.5451 78.516 59.0248 75.5783C58.8521 74.5995 58.76 73.5781 58.76 72.5231V54.0039V41.3634V31.6252ZM41.81 38.3388C44.0946 38.3388 46.0238 39.6736 46.9215 41.5907C47.1199 42.015 47.4476 42.3671 47.8585 42.5976C48.2694 42.8281 48.7428 42.9253 49.2124 42.8757C49.5891 42.8354 49.7399 42.8145 49.72 42.8145C51.0045 42.8145 52.1315 43.3366 52.9599 44.187C53.3029 44.538 53.7525 44.7682 54.24 44.8426V51.766H9.96695C10.7601 50.5036 11.9261 49.5281 13.56 49.5281C14.1594 49.5281 14.7342 49.2923 15.158 48.8726C15.5818 48.4529 15.8199 47.8838 15.82 47.2903C15.82 44.7913 17.8163 42.8145 20.34 42.8145C21.4992 42.8145 22.5234 43.2481 23.346 43.9815C23.7613 44.3525 24.3007 44.5579 24.86 44.5579C25.4193 44.5579 25.9587 44.3525 26.374 43.9815C27.1966 43.2481 28.2208 42.8145 29.38 42.8145C30.5944 42.8145 31.6715 43.2841 32.4919 44.0602C32.7855 44.3374 33.1489 44.5312 33.5442 44.6213C33.9394 44.7115 34.3519 44.6947 34.7383 44.5726C35.1248 44.4506 35.4709 44.2279 35.7405 43.9277C36.01 43.6276 36.193 43.2612 36.2704 42.867C36.7739 40.2875 39.0348 38.3388 41.81 38.3388ZM99.44 40.5767H106.22C107.497 40.5767 108.48 41.5501 108.48 42.8145C108.48 47.4537 107.861 54.5923 105.986 60.2848C105.049 63.131 103.794 65.5969 102.318 67.2213C101.426 68.2026 100.493 68.8533 99.44 69.245V40.5767ZM4.52 56.2417H6.78H54.24V72.5231C54.24 73.0603 54.2666 73.5859 54.3106 74.1053C54.5313 77.393 55.4321 80.4515 56.8664 83.0962H18.698C11.0722 78.1751 4.52 69.7315 4.52 60.512V56.2417ZM5.59703 87.5719H17.9432H61.0509H61.1657H92.532H107.403L106.07 90.8675C105.233 92.9368 103.227 94.2855 100.976 94.2855H12.0239C9.77314 94.2855 7.76444 92.9389 6.93008 90.8719C6.93008 90.8704 6.93008 90.869 6.93008 90.8675L5.59703 87.5719Z" fill="black"/>
</svg>
