<svg width="89" height="83" viewBox="0 0 89 83" fill="none" xmlns="http://www.w3.org/2000/svg">
<path d="M20.8594 0.00018123C20.6699 -0.00134515 20.482 0.0356798 20.3073 0.109006C20.1325 0.182331 19.9745 0.290426 19.8428 0.426722C19.7111 0.563017 19.6085 0.724666 19.5412 0.901844C19.474 1.07902 19.4434 1.26803 19.4515 1.45738V41.006H2.19561C1.79859 41.0134 1.42041 41.1767 1.14269 41.4605C0.864978 41.7443 0.710008 42.1259 0.711235 42.523V70.803C0.689923 73.7494 1.81341 76.589 3.84488 78.7232C4.83353 79.7663 6.0251 80.5961 7.34632 81.1617C8.66755 81.7273 10.0905 82.0166 11.5277 82.0119H78.5101C83.9025 82.0119 88.2894 77.4845 88.2894 71.8866V1.45738C88.2888 1.26387 88.2499 1.07239 88.1748 0.894056C88.0996 0.715722 87.9898 0.554083 87.8518 0.418521C87.7137 0.282959 87.55 0.176172 87.3703 0.104358C87.1906 0.0325443 86.9985 -0.00286612 86.805 0.00018123H20.8594ZM22.4202 2.96893H85.3206V71.8866C85.3206 75.8478 82.2656 79.0432 78.5101 79.0432H18.8763C18.9893 79.0432 19.1385 78.8373 19.2474 78.7232C21.2901 76.5931 22.4274 73.7541 22.4202 70.803V2.96893ZM77.4635 7.58912C74.8675 7.58912 72.0935 8.75476 72.0935 12.0256C72.0935 14.9522 74.2892 15.9274 76.2266 16.7878C77.7492 17.4641 79.0646 18.0481 79.0646 19.4311C79.0646 20.7558 77.8564 21.2268 76.7253 21.2268C75.4035 21.2268 74.6841 20.622 74.1048 20.136C73.7337 19.8241 73.4125 19.5547 73.0332 19.5547C72.2986 19.5547 71.7025 20.5304 71.7025 21.1674C71.7025 22.4824 73.8875 23.9535 76.8119 23.9535C80.0573 23.9535 82.0732 22.112 82.0732 19.1477C82.0732 15.7619 79.5872 14.7071 77.59 13.8597C76.2551 13.2934 75.1021 12.8043 75.1021 11.7643C75.1021 10.7605 75.9628 10.185 77.4635 10.185C78.2281 10.1681 78.9831 10.3585 79.6484 10.7358C79.8933 10.8908 80.1718 10.985 80.4605 11.0105C81.314 11.0105 81.6825 9.95711 81.6825 9.41958C81.6825 7.97492 79.0306 7.58912 77.4635 7.58912ZM41.7526 7.6076C41.1117 7.6076 40.4183 8.00544 40.4183 8.68102V22.7753C40.4183 23.4507 41.1117 23.7502 41.7526 23.7502H49.4836C50.1592 23.7502 50.4672 23.1036 50.4672 22.4731C50.4672 21.6769 50.0629 21.1525 49.4836 21.1525H43.387V16.8849H46.6388C47.2843 16.8849 47.6223 16.2862 47.6223 15.7006C47.6223 15.0933 47.2845 14.4728 46.6388 14.4728H43.387V10.3908H49.4836C50.0627 10.3908 50.4672 9.77364 50.4672 8.97746C50.4672 8.3466 50.1594 7.6076 49.4836 7.6076H41.7526ZM53.7787 7.69748C52.9022 7.69748 51.8834 8.2311 51.8834 8.91948C51.8853 9.01732 51.9014 9.11437 51.9312 9.20758L56.2311 22.867C56.4571 23.6211 57.4146 23.889 58.1655 23.889C58.9884 23.889 59.8928 23.5715 60.058 22.8623L61.3789 17.376L62.6788 22.8616C62.8443 23.5713 63.7491 23.889 64.5716 23.889C65.3424 23.889 66.2551 23.6214 66.5057 22.8699L70.8056 9.20976C70.8355 9.11595 70.8518 9.0183 70.8538 8.91984C70.8538 8.23146 69.8348 7.69784 68.9581 7.69784C68.4057 7.69784 68.0423 7.92298 67.9354 8.32877L64.601 19.7667L62.8372 12.546C62.6862 11.9164 61.9574 11.6925 61.3793 11.6925C60.7625 11.6925 60.0497 11.9166 59.8989 12.5453L58.1351 19.766L54.8021 8.33131C54.6949 7.92311 54.3313 7.69748 53.7787 7.69748ZM27.3086 7.69784C26.5599 7.69784 25.7601 8.00173 25.7601 8.68102V22.7757C25.7601 23.4509 26.6136 23.7585 27.3372 23.7585C28.0848 23.7585 28.9144 23.4207 28.9144 22.775V14.4152L33.3827 22.8192H33.37C33.7164 23.45 34.2441 23.7574 35.0486 23.7574C35.7962 23.7574 36.5218 23.42 36.5218 22.7742V8.65928C36.5218 7.9952 35.7863 7.69784 35.0374 7.69784C34.3435 7.69784 33.553 7.94975 33.553 8.65928V17.0089L29.5413 9.24563C28.8453 7.92139 28.3404 7.69784 27.3086 7.69784ZM29.9842 29.5021C29.5905 29.5021 29.2129 29.6585 28.9345 29.9369C28.6562 30.2153 28.4998 30.5928 28.4998 30.9865C28.4998 31.3802 28.6562 31.7577 28.9345 32.0361C29.2129 32.3145 29.5905 32.4709 29.9842 32.4709H77.7842C78.1779 32.4709 78.5555 32.3145 78.8338 32.0361C79.1122 31.7577 79.2686 31.3802 79.2686 30.9865C79.2686 30.5928 79.1122 30.2153 78.8338 29.9369C78.5555 29.6585 78.1779 29.5021 77.7842 29.5021H29.9842ZM29.9842 35.9963C29.5905 35.9963 29.2129 36.1527 28.9345 36.431C28.6562 36.7094 28.4998 37.087 28.4998 37.4807C28.4998 37.8743 28.6562 38.2519 28.9345 38.5303C29.2129 38.8086 29.5905 38.965 29.9842 38.965H77.7842C78.1779 38.965 78.5555 38.8086 78.8338 38.5303C79.1122 38.2519 79.2686 37.8743 79.2686 37.4807C79.2686 37.087 79.1122 36.7094 78.8338 36.431C78.5555 36.1527 78.1779 35.9963 77.7842 35.9963H29.9842ZM29.9842 42.4904C29.5905 42.4904 29.2129 42.6468 28.9345 42.9252C28.6562 43.2036 28.4998 43.5811 28.4998 43.9748C28.4998 44.3685 28.6562 44.746 28.9345 45.0244C29.2129 45.3028 29.5905 45.4592 29.9842 45.4592H77.7842C78.1779 45.4592 78.5555 45.3028 78.8338 45.0244C79.1122 44.746 79.2686 44.3685 79.2686 43.9748C79.2686 43.5811 79.1122 43.2036 78.8338 42.9252C78.5555 42.6468 78.1779 42.4904 77.7842 42.4904H29.9842ZM3.67999 43.9748H19.4515V70.803C19.4577 72.9932 18.6163 75.1009 17.1035 76.6847C16.3885 77.4384 15.5275 78.0387 14.573 78.4489C13.6185 78.8591 12.5905 79.0707 11.5516 79.0707C10.5127 79.0707 9.48465 78.8591 8.53014 78.4489C7.57564 78.0387 6.71467 77.4384 5.99968 76.6847C4.49485 75.0979 3.66341 72.9898 3.67999 70.803V43.9748ZM30.0276 48.9846C29.634 48.9846 29.2564 49.1409 28.978 49.4193C28.6997 49.6977 28.5433 50.0752 28.5433 50.4689V69.9514C28.5433 70.345 28.6997 70.7226 28.978 71.001C29.2564 71.2793 29.634 71.4357 30.0276 71.4357H53.0355C53.4291 71.4357 53.8067 71.2793 54.0851 71.001C54.3634 70.7226 54.5198 70.345 54.5198 69.9514V50.4689C54.5198 50.0752 54.3634 49.6977 54.0851 49.4193C53.8067 49.1409 53.4291 48.9846 53.0355 48.9846H30.0276ZM61.0904 48.9846C60.6968 48.9846 60.3192 49.1409 60.0408 49.4193C59.7625 49.6977 59.6061 50.0752 59.6061 50.4689C59.6061 50.8626 59.7625 51.2402 60.0408 51.5185C60.3192 51.7969 60.6968 51.9533 61.0904 51.9533H77.7842C78.1779 51.9533 78.5555 51.7969 78.8338 51.5185C79.1122 51.2402 79.2686 50.8626 79.2686 50.4689C79.2686 50.0752 79.1122 49.6977 78.8338 49.4193C78.5555 49.1409 78.1779 48.9846 77.7842 48.9846H61.0904ZM31.512 51.9533H51.3655V68.467H31.512V51.9533ZM61.0904 55.4787C60.6968 55.4787 60.3192 55.6351 60.0408 55.9135C59.7625 56.1918 59.6061 56.5694 59.6061 56.9631C59.6061 57.3568 59.7625 57.7343 60.0408 58.0127C60.3192 58.2911 60.6968 58.4474 61.0904 58.4474H77.7842C78.1779 58.4474 78.5555 58.2911 78.8338 58.0127C79.1122 57.7343 79.2686 57.3568 79.2686 56.9631C79.2686 56.5694 79.1122 56.1918 78.8338 55.9135C78.5555 55.6351 78.1779 55.4787 77.7842 55.4787H61.0904ZM61.0904 61.9728C60.6968 61.9728 60.3192 62.1292 60.0408 62.4076C59.7625 62.686 59.6061 63.0635 59.6061 63.4572C59.6061 63.8509 59.7625 64.2285 60.0408 64.5068C60.3192 64.7852 60.6968 64.9416 61.0904 64.9416H77.7842C78.1779 64.9416 78.5555 64.7852 78.8338 64.5068C79.1122 64.2285 79.2686 63.8509 79.2686 63.4572C79.2686 63.0635 79.1122 62.686 78.8338 62.4076C78.5555 62.1292 78.1779 61.9728 77.7842 61.9728H61.0904ZM61.0904 68.467C60.6968 68.467 60.3192 68.6234 60.0408 68.9017C59.7625 69.1801 59.6061 69.5577 59.6061 69.9514C59.6061 70.345 59.7625 70.7226 60.0408 71.001C60.3192 71.2793 60.6968 71.4357 61.0904 71.4357H77.7842C78.1779 71.4357 78.5555 71.2793 78.8338 71.001C79.1122 70.7226 79.2686 70.345 79.2686 69.9514C79.2686 69.5577 79.1122 69.1801 78.8338 68.9017C78.5555 68.6234 78.1779 68.467 77.7842 68.467H61.0904Z" fill="black"/>
</svg>
