<svg width="48" height="48" viewBox="0 0 48 48" fill="none" xmlns="http://www.w3.org/2000/svg">
<path d="M18.6999 13.767L18.7049 13.769C18.8089 13.326 19.1869 13 19.6599 13H33.1319C33.1489 13 33.1659 12.993 33.1829 12.994C32.8959 8.215 28.8869 6 25.3499 6H11.8779C11.4039 6 11.0259 6.335 10.9229 6.777L10.9179 6.775L5.02893 33.813L5.04193 33.814C5.02793 33.878 5.00293 33.939 5.00293 34.008C5.00293 34.561 5.44993 34.999 6.00293 34.999H14.0739L18.6999 13.767Z" fill="#1565C0"/>
<path d="M33.1829 12.9941C33.2359 13.8701 33.1779 14.8231 32.9539 15.8761C31.6729 21.8711 27.0419 24.9911 21.3189 24.9911C21.3189 24.9911 17.8489 24.9911 17.0059 24.9911C16.4849 24.9911 16.2389 25.2971 16.1259 25.5311L14.3859 33.5801L14.0809 35.0091H14.0749L12.8119 40.8051L12.8249 40.8061C12.8109 40.8701 12.7859 40.9311 12.7859 41.0001C12.7859 41.5531 13.2329 42.0001 13.7859 42.0001H21.1189L21.1319 41.9901C21.6039 41.9831 21.9789 41.6461 22.0769 41.2021L22.0949 41.1871L23.9069 32.7711C23.9069 32.7711 24.0329 31.9681 24.8769 31.9681C25.7209 31.9681 29.0549 31.9681 29.0549 31.9681C34.7779 31.9681 39.4559 28.8621 40.7379 22.8661C42.1799 16.1061 37.3579 13.0191 33.1829 12.9941Z" fill="#039BE5"/>
<path d="M19.66 13C19.186 13 18.808 13.326 18.705 13.769L18.7 13.767L16.125 25.532C16.238 25.298 16.484 24.992 17.005 24.992C17.849 24.992 21.24 24.992 21.24 24.992C26.963 24.992 31.672 21.872 32.953 15.877C33.178 14.824 33.235 13.871 33.182 12.995C33.166 12.993 33.148 13 33.132 13H19.66Z" fill="#283593"/>
</svg>
