<svg width="66" height="66" viewBox="0 0 66 66" fill="none" xmlns="http://www.w3.org/2000/svg">
<g clip-path="url(#clip0_270_1104)">
<path d="M13.1794 19.8027C12.0772 19.8555 10.7162 20.5569 9.93868 21.543C9.22588 22.393 8.61635 23.7736 8.77079 25.0698C10.0155 25.1781 11.2598 24.4207 12.0373 23.4611C12.8029 22.4751 13.3087 21.1531 13.1794 19.8027ZM23.76 22.4402V42.2402H26.895V35.6402H31.185C35.1226 35.6402 37.95 32.9012 37.95 29.0402C37.95 25.1792 35.1742 22.4402 31.2881 22.4402H23.76ZM26.895 25.0802H30.525C33.227 25.0802 34.815 26.5388 34.815 29.0402C34.815 31.5416 33.2402 33.0002 30.525 33.0002H26.895V25.0802ZM13.035 25.7402C11.22 25.7402 9.92245 26.7302 9.07501 26.7302C8.21437 26.7302 6.93001 25.753 5.44501 25.753C3.63001 25.753 1.85244 26.8923 0.91524 28.5529C-1.01064 31.8727 0.41529 36.7873 2.27649 39.4893C3.18861 40.8278 4.29001 42.2402 5.77501 42.2402C7.13593 42.1887 7.59661 41.4152 9.24001 41.4152C10.8953 41.4152 11.385 42.2402 12.87 42.2402C14.355 42.2402 15.2541 40.8793 16.1649 39.5409C17.205 38.0229 17.6299 36.543 17.655 36.4652C17.6299 36.4401 14.781 35.3461 14.7546 32.0514C14.7295 29.2979 17.0003 27.9849 17.1033 27.9084C15.8189 26.0049 13.695 25.7402 13.2 25.7402H13.035ZM45.143 27.7202C41.8575 27.7202 39.4294 29.5622 39.3396 32.0952H42.124C42.3537 30.8914 43.4925 30.1023 45.0527 30.1023C46.9443 30.1023 48.0124 30.9686 48.0124 32.5619L48.015 33.6602L44.1452 33.8638C40.5535 34.0763 38.61 35.5195 38.61 38.0275C38.61 40.5606 40.6167 42.2427 43.493 42.2427C45.436 42.2427 47.2392 41.277 48.0563 39.7471H48.1207V42.0906H50.9824V32.3608C50.9837 29.5373 48.6845 27.7202 45.143 27.7202ZM52.14 27.7202L57.4303 42.1731L57.1467 43.0523C56.6689 44.5425 55.8952 45.1148 54.5145 45.1148C54.2782 45.1148 53.8309 45.0909 53.625 45.0658V47.448C53.8336 47.4942 54.5594 47.5202 54.7852 47.5202C57.8304 47.5202 59.2637 46.3745 60.5163 42.8976L66 27.7202H62.8263L59.1474 39.448H59.0829L55.4039 27.7202H52.14ZM48.015 35.6402L48.0047 36.7848C48.0047 38.6157 46.4193 39.9198 44.3231 39.9198C42.6745 39.9198 41.6264 39.1434 41.6264 37.9527C41.6264 36.7238 42.6369 36.0089 44.5681 35.8954L48.015 35.6402Z" fill="white"/>
</g>
<defs>
<clipPath id="clip0_270_1104">
<rect width="66" height="66" fill="white"/>
</clipPath>
</defs>
</svg>
