<svg width="55" height="46" viewBox="0 0 55 46" fill="none" xmlns="http://www.w3.org/2000/svg">
<path fill-rule="evenodd" clip-rule="evenodd" d="M11.8433 27.8628C11.9617 27.9009 12.0811 27.928 12.2005 27.9446C12.3306 28.2373 12.4988 28.6159 12.6949 29.0586C13.1737 30.1391 13.8187 31.6004 14.4846 33.1249C15.8424 36.2339 17.2121 39.4386 17.5146 40.356C17.8891 41.49 18.2849 42.261 18.7171 42.7873C18.9405 43.0594 19.1989 43.2972 19.5013 43.4771C19.6535 43.5677 19.8143 43.642 19.9821 43.6973C19.9895 43.6998 19.9969 43.7022 20.0043 43.7045C20.8695 44.0171 21.6583 43.8868 22.1522 43.7277C22.4164 43.6425 22.6302 43.5396 22.7818 43.4563C22.859 43.4138 22.9243 43.3741 22.9764 43.3406L22.9887 43.3326L30.6297 38.7728L39.4557 45.248C39.586 45.3436 39.7279 45.4237 39.8784 45.4865C40.9387 45.9293 41.9655 46.0838 42.9314 45.9575C43.8955 45.8315 44.6612 45.4438 45.231 45.0075C45.7891 44.5802 46.1674 44.1018 46.403 43.7462C46.5233 43.5646 46.6137 43.404 46.6774 43.281C46.7094 43.2192 46.7351 43.1659 46.755 43.1231L46.7805 43.0667L46.7901 43.0446L46.7941 43.0351L46.7959 43.0308L46.7976 43.0267C46.844 42.9158 46.8796 42.8009 46.9039 42.6837L54.9613 3.81023C54.987 3.6859 55 3.55946 55 3.43272C55 2.29433 54.5518 1.21185 53.4978 0.554987C52.597 -0.00642192 51.5935 -0.0305873 50.9593 0.0154774C50.2752 0.0651677 49.6433 0.226782 49.2193 0.355923C48.9986 0.423131 48.8136 0.487975 48.6803 0.537445C48.6132 0.562308 48.5583 0.583638 48.5173 0.599907L48.4866 0.612291L3.29914 17.5752L3.29329 17.5772C3.26449 17.5872 3.22752 17.6004 3.18358 17.6168C3.09608 17.6494 2.97885 17.6953 2.8419 17.7547C2.57483 17.8705 2.20016 18.0516 1.81568 18.3035C1.20146 18.706 -0.211157 19.8084 0.0267098 21.628C0.216473 23.0796 1.25569 23.9711 1.88885 24.3998C2.23651 24.6352 2.5668 24.8035 2.80734 24.9131C2.91893 24.9639 3.15062 25.054 3.25115 25.0931L3.27652 25.103L11.8433 27.8628ZM50.068 4.18569L50.0617 4.18831C50.0392 4.19767 50.0165 4.20664 49.9937 4.21521L4.75138 21.1987C4.72776 21.2076 4.70396 21.216 4.68001 21.224L4.65483 21.2332C4.62588 21.2439 4.57715 21.2629 4.51599 21.2894C4.48131 21.3044 4.44512 21.3208 4.40822 21.3385C4.45891 21.3658 4.50744 21.3895 4.55055 21.4092C4.59194 21.428 4.62352 21.4409 4.6408 21.4477L13.1373 24.1849C13.2928 24.235 13.4377 24.3014 13.5708 24.3814L41.6256 8.66566L41.6518 8.65081C41.6723 8.63926 41.6991 8.6244 41.7313 8.607C41.7952 8.57246 41.8829 8.52647 41.9872 8.47565C42.1819 8.38082 42.4935 8.24005 42.8444 8.13626C43.0887 8.06399 43.8092 7.86042 44.5881 8.09948C45.0688 8.24703 45.5666 8.56424 45.8903 9.10161C46.0511 9.36858 46.1368 9.63676 46.1783 9.88226C46.2885 10.269 46.2711 10.6509 46.1848 10.9806C45.9989 11.6908 45.4775 12.2447 45.003 12.6685C44.5966 13.0317 39.3369 17.8849 34.1483 22.6757C31.5608 25.0648 28.9997 27.4304 27.0854 29.1986L25.8281 30.3601L41.7035 42.0071C42.0676 42.1319 42.2829 42.1255 42.3825 42.1125C42.5011 42.0969 42.5982 42.0532 42.6974 41.9773C42.8083 41.8924 42.9054 41.7777 42.9779 41.6683L42.9809 41.6638L50.7956 3.961C50.6796 3.98768 50.5624 4.01944 50.4493 4.05387C50.3213 4.09286 50.2157 4.12999 50.1457 4.15595C50.1111 4.1688 50.0861 4.17855 50.0726 4.18393L50.068 4.18569ZM27.192 36.2508L24.0248 33.9271L23.2573 38.5988L27.192 36.2508ZM21.1192 29.3162L24.2689 26.4065C26.1833 24.6381 28.7446 22.2724 31.3324 19.883L33.9616 17.4556L16.334 27.3303L16.4286 27.5437C16.909 28.628 17.557 30.0958 18.2263 31.6284C18.7268 32.7744 19.2502 33.981 19.727 35.0982L20.4922 30.4402C20.5659 29.9911 20.7952 29.6023 21.1192 29.3162Z" fill="white"/>
</svg>
