<svg width="87" height="82" viewBox="0 0 87 82" fill="none" xmlns="http://www.w3.org/2000/svg">
<path d="M13.8506 0V31.0638H0L0.301185 81.5425H27.7824H31.7364H59.3219H87V7.76595H55.3678V9.70744V46.5957H45.4751V0.0151679L13.8506 0ZM17.8047 3.88298L41.5211 3.89814V46.5957H31.6708L31.6399 31.0638H29.6667H17.8047V3.88298ZM23.7357 7.76595V11.6489H27.6897V7.76595H23.7357ZM31.721 7.76595V11.6489H35.5978V7.76595H31.721ZM59.3219 11.6489H83.046V77.6595H73.0837V69.8935H69.2069V77.6595H59.3219V46.5957V11.6489ZM23.7357 15.5319V19.4149H27.6897V15.5319H23.7357ZM31.6437 15.5319V19.4149H35.5978V15.5319H31.6437ZM65.2529 15.5395V19.4149H69.2069V15.5395H65.2529ZM73.1995 15.5471V19.4566H77.0763V15.5471H73.1995ZM65.2529 23.3282V27.1808H69.2069V23.3282H65.2529ZM73.1995 23.3282V27.1808H77.0763V23.3282H73.1995ZM65.2529 31.0638V34.9468H69.2069V31.0638H65.2529ZM73.1609 31.0638V34.9468H77.0763V31.0638H73.1609ZM3.97719 34.9468H27.6936L27.7167 46.5957H27.6859L27.7708 77.6595H17.7661V69.8935H13.8893V77.6595H4.23204L3.97719 34.9468ZM9.89663 38.8298V42.7431H13.9279V38.8298H9.89663ZM17.8819 38.8298V42.7431H21.7587V38.8298H17.8819ZM65.2529 38.8449V42.7089H69.2069V38.8449H65.2529ZM73.1609 38.8449V42.7089H77.0763V38.8449H73.1609ZM9.89663 46.5654V50.4787H13.9279V46.5654H9.89663ZM17.8819 46.5654V50.4787H21.7587V46.5654H17.8819ZM65.2529 46.5805V50.4938H69.2069V46.5805H65.2529ZM73.1995 46.5805V50.4938H77.0763V46.5805H73.1995ZM31.6785 50.4787H55.3678V77.6595H45.4828V69.8935H41.5288V77.6595H31.7287L31.6785 50.4787ZM9.89663 54.3617V58.275H13.9279V54.3617H9.89663ZM17.8819 54.3617V58.275H21.7587V54.3617H17.8819ZM37.5748 54.3617V58.275H41.5288V54.3617H37.5748ZM45.4828 54.3617V58.275H49.4368V54.3617H45.4828ZM65.2529 54.3617V58.275H69.2069V54.3617H65.2529ZM73.1995 54.3617V58.275H77.0763V54.3617H73.1995ZM37.5748 62.0973V66.0106H41.5288V62.0973H37.5748ZM45.4828 62.0973V66.0106H49.4368V62.0973H45.4828ZM65.2529 62.0973V66.0106H69.2069V62.0973H65.2529ZM73.1995 62.0973V66.0106H77.0763V62.0973H73.1995Z" fill="black"/>
</svg>
