<svg width="55" height="53" viewBox="0 0 55 53" fill="none" xmlns="http://www.w3.org/2000/svg">
<path d="M39.1499 12.4901C39.1499 10.9426 40.4539 9.68806 42.0624 9.68806C43.6709 9.68806 44.9749 10.9426 44.9749 12.4901C44.9749 14.0375 43.6709 15.292 42.0624 15.292C40.4539 15.292 39.1499 14.0375 39.1499 12.4901Z" fill="white"/>
<path fill-rule="evenodd" clip-rule="evenodd" d="M27.5 13.1906C19.8595 13.1906 13.6656 19.1494 13.6656 26.5C13.6656 33.8506 19.8595 39.8095 27.5 39.8095C35.1405 39.8095 41.3343 33.8506 41.3343 26.5C41.3343 19.1494 35.1405 13.1906 27.5 13.1906ZM18.0344 26.5C18.0344 21.4706 22.2723 17.3935 27.5 17.3935C32.7277 17.3935 36.9656 21.4706 36.9656 26.5C36.9656 31.5294 32.7277 35.6065 27.5 35.6065C22.2723 35.6065 18.0344 31.5294 18.0344 26.5Z" fill="white"/>
<path fill-rule="evenodd" clip-rule="evenodd" d="M42.8146 0.814204C32.7182 -0.271401 22.2818 -0.271401 12.1854 0.814204C6.32532 1.44431 1.59446 5.88549 0.905504 11.5526C-0.301834 21.4837 -0.301835 31.5163 0.905503 41.4474C1.59446 47.1145 6.32532 51.5557 12.1854 52.1858C22.2818 53.2714 32.7182 53.2714 42.8146 52.1858C48.6747 51.5557 53.4055 47.1145 54.0945 41.4474C55.3018 31.5163 55.3018 21.4837 54.0945 11.5526C53.4055 5.88549 48.6747 1.44431 42.8146 0.814204ZM12.6707 4.99118C22.4445 3.94025 32.5555 3.94025 42.3293 4.99118C46.2033 5.40772 49.3065 8.34873 49.7553 12.0408C50.9232 21.6475 50.9232 31.3525 49.7553 40.9592C49.3065 44.6513 46.2033 47.5923 42.3293 48.0088C32.5555 49.0597 22.4445 49.0597 12.6707 48.0088C8.79674 47.5923 5.69352 44.6513 5.24466 40.9592C4.07676 31.3525 4.07676 21.6475 5.24466 12.0408C5.69352 8.34873 8.79674 5.40772 12.6707 4.99118Z" fill="white"/>
</svg>
