<svg width="64" height="45" viewBox="0 0 64 45" fill="none" xmlns="http://www.w3.org/2000/svg">
<path fill-rule="evenodd" clip-rule="evenodd" d="M63.4908 36.6319C61.9995 33.3194 60.0344 30.2936 57.6711 27.6705C56.8668 26.6396 55.9237 25.6221 55.1876 24.8279L55.0848 24.717C54.7051 24.3072 54.3913 23.967 54.1346 23.6739C57.3661 18.7188 60.1319 13.4129 62.3886 7.83806L62.4797 7.61312L62.5435 7.37706C62.8401 6.27978 63.1816 4.19324 61.9732 2.30758C60.7242 0.358576 58.7242 0.00708195 57.385 0.00708195H51.2236C49.939 -0.0578565 48.6672 0.325066 47.5895 1.10358C46.5037 1.88797 45.6731 3.03207 45.2161 4.36951C43.8891 7.85489 42.2288 11.1701 40.2654 14.2596V6.29739C40.2654 5.26815 40.1776 3.54646 39.1782 2.09327C37.9816 0.353329 36.2511 0.00708195 35.0499 0.00708195H25.2732C24.0136 -0.0250429 22.7886 0.471616 21.8471 1.39872C20.883 2.34817 20.2922 3.6744 20.1999 5.0962L20.1912 5.23089V5.36592C20.1912 6.83385 20.7187 7.91666 21.1401 8.59766C21.3288 8.90254 21.5306 9.18006 21.6581 9.35537L21.6875 9.39583C21.8234 9.58274 21.9141 9.70749 22.0052 9.84408C22.2447 10.2033 22.5892 10.7573 22.6867 12.1907V16.6444C21.0012 13.5891 19.2232 9.52328 17.8854 5.18089L17.8649 5.11425L17.8421 5.0485C17.5085 4.08509 16.9735 2.68331 15.902 1.61061C14.6502 0.357435 13.1695 0.00708195 11.823 0.00708195H5.57139C4.20913 0.00708195 2.56688 0.358506 1.34149 1.78395C0.136477 3.18568 0 4.86531 0 5.75837V6.16091L0.0768825 6.55441C1.80847 15.4172 5.3764 23.7168 10.5004 30.8042C12.8234 34.8441 15.9713 38.2303 19.6934 40.6913C23.4749 43.1916 27.741 44.6655 32.1403 44.9915L32.255 45H32.3701C34.3603 45 36.4351 44.8105 37.9952 43.6641C40.1 42.1174 40.2654 39.7419 40.2654 38.5584V35.1176C40.8055 35.5991 41.4757 36.2472 42.2961 37.1183C43.2878 38.213 44.0775 39.1614 44.7549 39.9894L45.1163 40.4325L45.1184 40.4351C45.6444 41.0809 46.1621 41.7167 46.6335 42.2392C47.226 42.8962 47.9564 43.6199 48.8747 44.1546C49.869 44.7335 50.9126 44.9953 52.021 44.9953H58.2769C59.5948 44.9953 61.4852 44.6516 62.8142 42.9526C64.2626 41.1008 64.1519 38.8313 63.6965 37.2004L63.6146 36.9069L63.4908 36.6319ZM47.8087 36.9512C47.1044 36.0904 46.2552 35.0699 45.1822 33.8866L45.1733 33.877C41.4548 29.9237 39.7174 29.2348 38.4888 29.2348C37.8354 29.2348 37.1124 29.3157 36.6432 29.9602C36.4217 30.2645 36.3054 30.6314 36.2401 31.0139C36.1749 31.3958 36.1525 31.8442 36.1525 32.3549V38.5584C36.1525 39.3288 36.0376 39.6523 35.7144 39.8898C35.284 40.2061 34.3641 40.4625 32.3931 40.4645C28.652 40.1832 25.0246 38.9279 21.8084 36.8014C18.5857 34.6706 15.8682 31.726 13.8796 28.2101L13.858 28.1718L13.8324 28.1367C9.05784 21.5834 5.73084 13.896 4.11382 5.68179C4.12258 5.28581 4.20039 5.05089 4.32643 4.90427C4.45632 4.75318 4.77104 4.5426 5.57139 4.5426H11.823C12.5184 4.5426 12.8783 4.70942 13.1374 4.96873C13.431 5.26271 13.6857 5.76195 13.9952 6.65337C15.5296 11.6303 17.6047 16.2846 19.5696 19.7069C20.5518 21.4174 21.5183 22.8411 22.3892 23.8473C22.8239 24.3495 23.2503 24.7658 23.6571 25.0617C24.0509 25.3481 24.4974 25.5739 24.9565 25.5739C25.1988 25.5739 25.4822 25.5465 25.755 25.4133C26.0485 25.2699 26.2763 25.0311 26.4372 24.7111C26.7218 24.145 26.7997 23.3065 26.7997 22.208V12.0372L26.7983 12.0134C26.6562 9.53897 25.9787 8.1471 25.3191 7.1576C25.1745 6.94075 25.0319 6.74487 24.9072 6.57346L24.873 6.52648C24.736 6.33812 24.627 6.18589 24.5375 6.04116C24.3734 5.77596 24.3097 5.59106 24.3045 5.39292C24.3259 5.15773 24.4265 4.9395 24.5868 4.78162C24.7532 4.61772 24.971 4.53241 25.1939 4.5426H35.0499C35.615 4.5426 35.8053 4.69464 35.901 4.8339C36.0362 5.03051 36.1525 5.43938 36.1525 6.29739V19.9905C36.1525 21.617 36.8323 22.7181 37.8199 22.7181C38.956 22.7181 39.7751 21.9578 41.2074 20.3784L41.2313 20.352L41.2528 20.3232C44.4631 16.006 47.0869 11.1966 49.0398 6.04565L49.0523 6.00703C49.1991 5.55187 49.477 5.16219 49.8434 4.89746C50.2099 4.63272 50.6448 4.50747 51.0819 4.5408L51.1055 4.5426H57.385C58.2415 4.5426 58.5232 4.78295 58.6143 4.92508C58.7112 5.07632 58.7786 5.40042 58.6139 6.03603C56.3625 11.5887 53.5782 16.8594 50.3102 21.7595L50.2896 21.7942C49.9723 22.3292 49.6243 22.9212 49.5739 23.601C49.5198 24.331 49.8063 24.9945 50.3075 25.7058C50.6727 26.3013 51.4259 27.1143 52.1901 27.9392L52.2621 28.0169C53.0633 28.8816 53.9313 29.8184 54.6281 30.7253L54.6467 30.7495L54.667 30.7718C56.744 33.0565 58.4711 35.6974 59.7811 38.5917C59.9901 39.3798 59.8621 39.7826 59.6996 39.9903C59.5094 40.2334 59.0835 40.4598 58.2769 40.4598H52.021C51.5326 40.4598 51.1554 40.3536 50.7952 40.1438C50.4198 39.9252 50.0337 39.5774 49.5495 39.0407C49.1596 38.6084 48.7334 38.0854 48.2137 37.4476C48.0848 37.2894 47.95 37.1239 47.8087 36.9512Z" fill="white"/>
</svg>
