<svg width="61" height="61" viewBox="0 0 61 61" fill="none" xmlns="http://www.w3.org/2000/svg">
<path d="M40.6667 12.7085C38.3302 12.7085 36.0167 13.1687 33.8581 14.0628C31.6995 14.9569 29.7382 16.2674 28.0861 17.9196C26.434 19.5717 25.1234 21.533 24.2293 23.6916C23.3352 25.8502 22.875 28.1637 22.875 30.5002C22.875 32.8366 23.3352 35.1502 24.2293 37.3087C25.1234 39.4673 26.434 41.4287 28.0861 43.0808C29.7382 44.7329 31.6995 46.0434 33.8581 46.9375C36.0167 47.8316 38.3302 48.2918 40.6667 48.2918C43.0031 48.2918 45.3167 47.8316 47.4752 46.9375C49.6338 46.0434 51.5952 44.7329 53.2473 43.0808C54.8994 41.4287 56.2099 39.4673 57.104 37.3087C57.9981 35.1502 58.4583 32.8366 58.4583 30.5002C58.4583 28.1637 57.9981 25.8502 57.104 23.6916C56.2099 21.533 54.8994 19.5717 53.2473 17.9196C51.5952 16.2674 49.6338 14.9569 47.4752 14.0628C45.3167 13.1687 43.0031 12.7085 40.6667 12.7085Z" fill="#FF9800"/>
<path d="M20.3334 12.7085C17.997 12.7085 15.6834 13.1687 13.5248 14.0628C11.3663 14.9569 9.40491 16.2674 7.75281 17.9196C6.1007 19.5717 4.79017 21.533 3.89606 23.6916C3.00194 25.8502 2.54175 28.1637 2.54175 30.5002C2.54175 32.8366 3.00194 35.1502 3.89606 37.3087C4.79017 39.4673 6.1007 41.4287 7.75281 43.0808C9.40491 44.7329 11.3663 46.0434 13.5248 46.9375C15.6834 47.8316 17.997 48.2918 20.3334 48.2918C22.6698 48.2918 24.9834 47.8316 27.142 46.9375C29.3006 46.0434 31.2619 44.7329 32.914 43.0808C34.5661 41.4287 35.8767 39.4673 36.7708 37.3087C37.6649 35.1502 38.1251 32.8366 38.1251 30.5002C38.1251 28.1637 37.6649 25.8502 36.7708 23.6916C35.8767 21.533 34.5661 19.5717 32.914 17.9196C31.2619 16.2674 29.3006 14.9569 27.142 14.0628C24.9834 13.1687 22.6698 12.7085 20.3334 12.7085Z" fill="#D50000"/>
<path d="M22.875 30.4998C22.875 36.5426 25.8945 41.8738 30.5 45.089C35.1055 41.8738 38.125 36.5426 38.125 30.4998C38.125 24.457 35.1055 19.1259 30.5 15.9106C25.8945 19.1259 22.875 24.457 22.875 30.4998Z" fill="#FF3D00"/>
</svg>
