<svg width="107" height="34" viewBox="0 0 107 34" fill="none" xmlns="http://www.w3.org/2000/svg">
<path d="M95.3929 0H74.946C76.1371 7.29357 82.688 14.1581 89.8345 14.1581H106.113C106.311 13.5146 106.311 12.442 106.311 11.7984C106.311 5.36292 101.348 0 95.3929 0Z" fill="url(#paint0_linear_949_53)"/>
<path d="M76.7327 15.4453V33.2502H86.6583V23.8115H95.3928C100.157 23.8115 104.326 20.1647 105.715 15.4453H76.7327Z" fill="#4FAD50"/>
<path d="M41.7942 0V33.0357H50.5288C50.5288 33.0357 52.7124 33.0356 53.9035 30.676C59.8589 18.0194 61.6455 14.1581 61.6455 14.1581H62.8366V33.0357H72.7622V0H64.0277C64.0277 0 61.844 0.21453 60.6529 2.3597C55.6901 13.3001 52.9109 18.8775 52.9109 18.8775H51.7198V0H41.7942Z" fill="#4FAD50"/>
<path d="M0.106506 33.2494V0.213867H10.0322C10.0322 0.213867 12.8114 0.213861 14.3995 4.93323C18.3698 17.3752 18.7668 19.0914 18.7668 19.0914C18.7668 19.0914 19.5609 16.0881 23.1341 4.93323C24.7222 0.213861 27.5014 0.213867 27.5014 0.213867H37.4271V33.2494H27.5014V15.4446H26.3103L20.752 33.2494H16.3847L10.8263 15.4446H9.6352V33.2494H0.106506Z" fill="#4FAD50"/>
<defs>
<linearGradient id="paint0_linear_949_53" x1="74.9106" y1="7.18053" x2="106.241" y2="7.18053" gradientUnits="userSpaceOnUse">
<stop stop-color="#27B1E6"/>
<stop offset="1" stop-color="#148ACA"/>
</linearGradient>
</defs>
</svg>
