<svg width="58" height="58" viewBox="0 0 58 58" fill="none" xmlns="http://www.w3.org/2000/svg">
<path d="M54.375 42.2917C54.375 44.9609 52.2109 47.125 49.5417 47.125H8.45833C5.78912 47.125 3.625 44.9609 3.625 42.2917V15.7083C3.625 13.0391 5.78912 10.875 8.45833 10.875H49.5417C52.2109 10.875 54.375 13.0391 54.375 15.7083V42.2917Z" fill="#1565C0"/>
<path d="M18.3497 22.9582L15.1766 32.4219C15.1766 32.4219 14.3706 28.4187 14.2909 27.916C12.4844 23.7944 9.81885 24.024 9.81885 24.024L12.9605 36.2499V36.2475H16.7801L22.0617 22.9582H18.3497ZM21.3741 36.2499H24.8433L26.9409 22.9582H23.4283L21.3741 36.2499ZM45.9263 22.9582H42.2759L36.5846 36.2499H40.0308L40.7413 34.3516H45.0865L45.4562 36.2499H48.6136L45.9263 22.9582ZM41.7031 31.8129L43.5918 26.7899L44.5802 31.8129H41.7031ZM31.8625 26.8322C31.8625 26.0999 32.4642 25.5549 34.1897 25.5549C35.3111 25.5549 36.5955 26.3694 36.5955 26.3694L37.1586 23.5793C37.1586 23.5793 35.5177 22.957 33.907 22.957C30.259 22.957 28.3776 24.7019 28.3776 26.9107C28.3776 30.9054 33.1856 30.3581 33.1856 32.4098C33.1856 32.7614 32.9065 33.5747 30.9043 33.5747C28.896 33.5747 27.5705 32.8388 27.5705 32.8388L26.9723 35.5164C26.9723 35.5164 28.2568 36.2487 30.7387 36.2487C33.2267 36.2487 36.6777 34.3879 36.6777 31.715C36.6777 28.4997 31.8625 28.2677 31.8625 26.8322Z" fill="white"/>
<path d="M14.7562 30.1417L13.589 24.4045C13.589 24.4045 13.0609 23.1611 11.6882 23.1611C10.3156 23.1611 6.32324 23.1611 6.32324 23.1611C6.32324 23.1611 13.1636 25.1815 14.7562 30.1417Z" fill="#FFC107"/>
</svg>
