<svg width="90" height="76" viewBox="0 0 90 76" fill="none" xmlns="http://www.w3.org/2000/svg">
<path d="M85.5 0.5H4.5C2.01855 0.5 0 2.51855 0 5V71C0 73.4815 2.01855 75.5 4.5 75.5H85.5C87.9815 75.5 90 73.4815 90 71V5C90 2.51855 87.9815 0.5 85.5 0.5ZM3 71V5C3 4.17309 3.67309 3.5 4.5 3.5H43.5V72.5H4.5C3.67309 72.5 3 71.8269 3 71ZM87 71C87 71.8269 86.3269 72.5 85.5 72.5H46.5V3.5H85.5C86.3269 3.5 87 4.17309 87 5V71Z" fill="#2B240C"/>
<path d="M35.6712 25.4368C36.0315 24.9871 36.1019 24.3696 35.8521 23.8503C35.6023 23.3303 35.0765 23 34.5001 23H10.5001C9.92363 23 9.39776 23.3303 9.148 23.8503C8.89825 24.3696 8.96855 24.987 9.32891 25.4368L21.0001 40.0257V50H15.0001C14.1717 50 13.5001 50.6716 13.5001 51.5C13.5001 52.3284 14.1717 53 15.0001 53H30.0001C30.8284 53 31.5001 52.3284 31.5001 51.5C31.5001 50.6716 30.8284 50 30.0001 50H24.0001V40.0257L35.6712 25.4368ZM31.3792 26L22.5001 37.0991L13.6209 26H31.3792Z" fill="#2B240C"/>
<path d="M79.5 23H54C53.1716 23 52.5 23.6716 52.5 24.5C52.5 25.3284 53.1716 26 54 26H79.5C80.3284 26 81 25.3284 81 24.5C81 23.6716 80.3284 23 79.5 23Z" fill="#2B240C"/>
<path d="M79.5 50H54C53.1716 50 52.5 50.6716 52.5 51.5C52.5 52.3284 53.1716 53 54 53H79.5C80.3284 53 81 52.3284 81 51.5C81 50.6716 80.3284 50 79.5 50Z" fill="#2B240C"/>
<path d="M79.5 41H54C53.1716 41 52.5 41.6716 52.5 42.5C52.5 43.3284 53.1716 44 54 44H79.5C80.3284 44 81 43.3284 81 42.5C81 41.6716 80.3284 41 79.5 41Z" fill="#2B240C"/>
<path d="M79.5 32H54C53.1716 32 52.5 32.6716 52.5 33.5C52.5 34.3284 53.1716 35 54 35H79.5C80.3284 35 81 34.3284 81 33.5C81 32.6716 80.3284 32 79.5 32Z" fill="#2B240C"/>
</svg>
