<svg width="46" height="45" viewBox="0 0 46 45" fill="none" xmlns="http://www.w3.org/2000/svg">
<g clip-path="url(#clip0_1242_644)">
<path d="M22.5716 0.341797C13.319 0.341797 10.6129 0.351342 10.0869 0.394977C8.1881 0.552813 7.00655 0.851781 5.71932 1.49267C4.7273 1.98527 3.94494 2.55628 3.1728 3.35671C1.76659 4.81643 0.914347 6.61229 0.605834 8.747C0.455838 9.78333 0.412203 9.99469 0.40334 15.2882C0.399931 17.0527 0.40334 19.3749 0.40334 22.4897C0.40334 31.7348 0.413567 34.4382 0.457884 34.9631C0.611288 36.8108 0.901052 37.9733 1.51467 39.2448C2.68736 41.6788 4.92707 43.5061 7.56562 44.1879C8.47923 44.4231 9.48829 44.5526 10.7837 44.614C11.3326 44.6378 16.9267 44.6549 22.5243 44.6549C28.1218 44.6549 33.7194 44.6481 34.2546 44.6208C35.7545 44.5502 36.6255 44.4333 37.5886 44.1844C40.2442 43.4992 42.443 41.6993 43.6395 39.2312C44.2412 37.9903 44.5463 36.7835 44.6844 35.0323C44.7144 34.6505 44.727 28.5631 44.727 22.4839C44.727 16.4036 44.7134 10.3274 44.6834 9.9456C44.5436 8.16611 44.2385 6.96955 43.6174 5.70482C43.1077 4.66951 42.5418 3.89635 41.7203 3.1058C40.2541 1.70539 38.4609 0.853145 36.3242 0.544973C35.2889 0.395318 35.0826 0.351001 29.7851 0.341797H22.5716Z" fill="url(#paint0_radial_1242_644)"/>
<path d="M22.5716 0.341797C13.319 0.341797 10.6129 0.351342 10.0869 0.394977C8.1881 0.552813 7.00655 0.851781 5.71932 1.49267C4.7273 1.98527 3.94494 2.55628 3.1728 3.35671C1.76659 4.81643 0.914347 6.61229 0.605834 8.747C0.455838 9.78333 0.412203 9.99469 0.40334 15.2882C0.399931 17.0527 0.40334 19.3749 0.40334 22.4897C0.40334 31.7348 0.413567 34.4382 0.457884 34.9631C0.611288 36.8108 0.901052 37.9733 1.51467 39.2448C2.68736 41.6788 4.92707 43.5061 7.56562 44.1879C8.47923 44.4231 9.48829 44.5526 10.7837 44.614C11.3326 44.6378 16.9267 44.6549 22.5243 44.6549C28.1218 44.6549 33.7194 44.6481 34.2546 44.6208C35.7545 44.5502 36.6255 44.4333 37.5886 44.1844C40.2442 43.4992 42.443 41.6993 43.6395 39.2312C44.2412 37.9903 44.5463 36.7835 44.6844 35.0323C44.7144 34.6505 44.727 28.5631 44.727 22.4839C44.727 16.4036 44.7134 10.3274 44.6834 9.9456C44.5436 8.16611 44.2385 6.96955 43.6174 5.70482C43.1077 4.66951 42.5418 3.89635 41.7203 3.1058C40.2541 1.70539 38.4609 0.853145 36.3242 0.544973C35.2889 0.395318 35.0826 0.351001 29.7851 0.341797H22.5716Z" fill="url(#paint1_radial_1242_644)"/>
<path d="M22.5614 6.13672C18.1174 6.13672 17.5597 6.15615 15.8143 6.23558C14.0723 6.31535 12.8833 6.59114 11.8429 6.99578C10.7666 7.41373 9.85372 7.9728 8.9442 8.88266C8.034 9.79218 7.47493 10.7051 7.05562 11.781C6.64995 12.8217 6.37383 14.0111 6.29542 15.7525C6.21735 17.4979 6.1969 18.0559 6.1969 22.4999C6.1969 26.9438 6.21667 27.4998 6.29576 29.2452C6.37587 30.9872 6.65166 32.1763 7.05596 33.2167C7.47425 34.2929 8.03332 35.2058 8.94318 36.1154C9.85236 37.0256 10.7653 37.586 11.8408 38.0039C12.8819 38.4086 14.0713 38.6844 15.813 38.7641C17.5584 38.8436 18.1157 38.863 22.5594 38.863C27.0037 38.863 27.5597 38.8436 29.3051 38.7641C31.0471 38.6844 32.2375 38.4086 33.2786 38.0039C34.3545 37.586 35.266 37.0256 36.1752 36.1154C37.0854 35.2058 37.6445 34.2929 38.0638 33.217C38.466 32.1763 38.7422 30.9869 38.824 29.2456C38.9024 27.5002 38.9228 26.9438 38.9228 22.4999C38.9228 18.0559 38.9024 17.4982 38.824 15.7528C38.7422 14.0108 38.466 12.8217 38.0638 11.7813C37.6445 10.7051 37.0854 9.79218 36.1752 8.88266C35.265 7.97246 34.3548 7.41338 33.2776 6.99578C32.2344 6.59114 31.0447 6.31535 29.3027 6.23558C27.5573 6.15615 27.0016 6.13672 22.5563 6.13672H22.5614ZM21.0935 9.08549C21.5292 9.08481 22.0153 9.08549 22.5614 9.08549C26.9304 9.08549 27.4482 9.10117 29.1735 9.17958C30.7689 9.25253 31.6348 9.51912 32.2116 9.74309C32.9752 10.0397 33.5196 10.3942 34.092 10.9669C34.6647 11.5396 35.0192 12.0851 35.3165 12.8487C35.5404 13.4248 35.8074 14.2907 35.88 15.8861C35.9584 17.611 35.9754 18.1292 35.9754 22.4961C35.9754 26.863 35.9584 27.3812 35.88 29.1061C35.807 30.7015 35.5404 31.5674 35.3165 32.1435C35.0199 32.9072 34.6647 33.4509 34.092 34.0233C33.5193 34.596 32.9755 34.9505 32.2116 35.2471C31.6354 35.4721 30.7689 35.738 29.1735 35.8109C27.4485 35.8893 26.9304 35.9064 22.5614 35.9064C18.1921 35.9064 17.6743 35.8893 15.9493 35.8109C14.3539 35.7373 13.488 35.4707 12.9109 35.2467C12.1473 34.9502 11.6018 34.5956 11.0291 34.0229C10.4564 33.4502 10.1019 32.9061 9.80463 32.1422C9.58066 31.5661 9.31374 30.7002 9.24113 29.1048C9.16272 27.3798 9.14704 26.8617 9.14704 22.492C9.14704 18.1224 9.16272 17.6069 9.24113 15.882C9.31408 14.2866 9.58066 13.4207 9.80463 12.8439C10.1012 12.0803 10.4564 11.5349 11.0291 10.9621C11.6018 10.3894 12.1473 10.0349 12.9109 9.73763C13.4877 9.51264 14.3539 9.24674 15.9493 9.17345C17.4588 9.10527 18.0438 9.08481 21.0935 9.0814V9.08549ZM31.2959 11.8025C30.2119 11.8025 29.3323 12.681 29.3323 13.7654C29.3323 14.8494 30.2119 15.7289 31.2959 15.7289C32.38 15.7289 33.2595 14.8494 33.2595 13.7654C33.2595 12.6813 32.38 11.8018 31.2959 11.8018V11.8025ZM22.5614 14.0967C17.9207 14.0967 14.1582 17.8592 14.1582 22.4999C14.1582 27.1405 17.9207 30.9013 22.5614 30.9013C27.2021 30.9013 30.9632 27.1405 30.9632 22.4999C30.9632 17.8592 27.2017 14.0967 22.5611 14.0967H22.5614ZM22.5614 17.0455C25.5736 17.0455 28.0158 19.4873 28.0158 22.4999C28.0158 25.512 25.5736 27.9542 22.5614 27.9542C19.5489 27.9542 17.107 25.512 17.107 22.4999C17.107 19.4873 19.5489 17.0455 22.5614 17.0455Z" fill="white"/>
</g>
<defs>
<radialGradient id="paint0_radial_1242_644" cx="0" cy="0" r="1" gradientUnits="userSpaceOnUse" gradientTransform="translate(12.1758 48.0679) rotate(-90) scale(43.9175 40.8579)">
<stop stop-color="#FFDD55"/>
<stop offset="0.1" stop-color="#FFDD55"/>
<stop offset="0.5" stop-color="#FF543E"/>
<stop offset="1" stop-color="#C837AB"/>
</radialGradient>
<radialGradient id="paint1_radial_1242_644" cx="0" cy="0" r="1" gradientUnits="userSpaceOnUse" gradientTransform="translate(-7.02288 3.53404) rotate(78.6776) scale(19.6315 80.9424)">
<stop stop-color="#3771C8"/>
<stop offset="0.128" stop-color="#3771C8"/>
<stop offset="1" stop-color="#6600FF" stop-opacity="0"/>
</radialGradient>
<clipPath id="clip0_1242_644">
<rect width="45" height="44.9986" fill="white" transform="translate(0.06073 0.000976562)"/>
</clipPath>
</defs>
</svg>
