<svg width="289" height="198" viewBox="0 0 289 198" fill="none" xmlns="http://www.w3.org/2000/svg">
<path d="M57.8797 143.48C71.5816 143.48 82.6892 132.382 82.6892 118.691C82.6892 105 71.5816 93.9014 57.8797 93.9014C44.1778 93.9014 33.0702 105 33.0702 118.691C33.0702 132.382 44.1778 143.48 57.8797 143.48Z" stroke="#BB4F03" stroke-width="1.9961" stroke-miterlimit="10"/>
<path d="M57.9036 132.299C65.4243 132.299 71.521 126.207 71.521 118.692C71.521 111.178 65.4243 105.086 57.9036 105.086C50.3829 105.086 44.2862 111.178 44.2862 118.692C44.2862 126.207 50.3829 132.299 57.9036 132.299Z" fill="#BB4F03"/>
<path d="M194.449 143.48C208.15 143.48 219.258 132.382 219.258 118.691C219.258 105 208.15 93.9014 194.449 93.9014C180.747 93.9014 169.639 105 169.639 118.691C169.639 132.382 180.747 143.48 194.449 143.48Z" stroke="#BB4F03" stroke-width="1.9961" stroke-miterlimit="10"/>
<path d="M194.473 132.299C201.993 132.299 208.09 126.207 208.09 118.692C208.09 111.178 201.993 105.086 194.473 105.086C186.952 105.086 180.855 111.178 180.855 118.692C180.855 126.207 186.952 132.299 194.473 132.299Z" fill="#BB4F03"/>
<path d="M52.65 10.5489H69.571C70.5399 10.5425 71.4717 10.9203 72.162 11.5995C72.8524 12.2788 73.2449 13.2039 73.2534 14.1719C73.2492 14.6509 73.1506 15.1243 72.9632 15.5652C72.7759 16.0061 72.5035 16.4058 72.1615 16.7415C71.8196 17.0771 71.4148 17.3422 70.9704 17.5216C70.5259 17.701 70.0504 17.7911 69.571 17.7869H52.65C52.171 17.7911 51.696 17.7009 51.2519 17.5215C50.8079 17.342 50.4037 17.0768 50.0624 16.741C49.7211 16.4052 49.4494 16.0054 49.2629 15.5646C49.0765 15.1238 48.9789 14.6505 48.9757 14.1719C48.9789 13.693 49.0764 13.2193 49.2628 12.778C49.4492 12.3367 49.7207 11.9365 50.0619 11.6C50.4031 11.2636 50.8072 10.9976 51.2513 10.8173C51.6954 10.6369 52.1706 10.5457 52.65 10.5489Z" fill="white" stroke="white" stroke-width="0.249513" stroke-miterlimit="10"/>
<path d="M4.52985 142.437V29.1895C4.52985 29.1895 11.5319 -6.43677 73.2938 3.74792" stroke="white" stroke-width="1.9961" stroke-miterlimit="10"/>
<path d="M1.87078 146.363H11.6608C11.8503 146.359 12.0307 146.281 12.1632 146.146C12.2957 146.01 12.3699 145.828 12.3699 145.639V93.5882C12.3692 93.462 12.3363 93.3381 12.2743 93.2281C12.2122 93.1182 12.1231 93.026 12.0154 92.9602L2.20115 87.0909C2.0927 87.0264 1.96897 86.992 1.84276 86.9912C1.71655 86.9905 1.59242 87.0234 1.4832 87.0866C1.37397 87.1497 1.2836 87.2409 1.22142 87.3507C1.15924 87.4604 1.1275 87.5847 1.12948 87.7108V145.679C1.13989 145.867 1.22308 146.043 1.36144 146.171C1.4998 146.299 1.68247 146.368 1.87078 146.363Z" fill="white"/>
<path d="M261.963 143.48C275.665 143.48 286.773 132.382 286.773 118.691C286.773 105 275.665 93.9014 261.963 93.9014C248.262 93.9014 237.154 105 237.154 118.691C237.154 132.382 248.262 143.48 261.963 143.48Z" stroke="white" stroke-width="1.9961" stroke-miterlimit="10"/>
<path d="M286.773 118.691V40.9492" stroke="white" stroke-width="1.9961" stroke-linejoin="round"/>
<path d="M126.595 143.677C140.297 143.677 151.405 132.578 151.405 118.887C151.405 105.196 140.297 94.0977 126.595 94.0977C112.893 94.0977 101.786 105.196 101.786 118.887C101.786 132.578 112.893 143.677 126.595 143.677Z" stroke="white" stroke-width="1.9961" stroke-linejoin="round"/>
<path d="M101.777 118.886V196.627" stroke="white" stroke-width="1.9961" stroke-linejoin="round"/>
<path d="M149.358 66.6364H146.038V41.9355H149.358V66.6364ZM149.793 53.8512L160.679 41.9355H164.627L153.741 53.7627L165.344 66.6445H161.243L149.793 53.8512Z" fill="white"/>
<path d="M196.116 41.9354V66.6122H192.893V61.9747C192.341 62.9407 191.651 63.8219 190.847 64.5913C188.753 66.3479 186.086 67.2735 183.353 67.1919C181.25 67.1782 179.178 66.6853 177.294 65.7507C175.416 64.8899 173.762 63.6089 172.459 62.0069C171.671 60.9355 171.071 59.7375 170.687 58.4644C170.25 57.1199 170.027 55.7154 170.026 54.302C170.013 52.033 170.626 49.8044 171.799 47.8611C172.994 45.8948 174.676 44.2692 176.683 43.1411C178.69 42.013 180.954 41.4203 183.256 41.4202C184.691 41.4111 186.116 41.648 187.471 42.1206C189.783 42.9038 191.717 44.5238 192.893 46.6615V41.9354H196.116ZM183.418 44.5762C181.629 44.5575 179.867 45.0101 178.309 45.8886C176.799 46.7292 175.542 47.9592 174.669 49.4502C173.796 50.9413 173.339 52.639 173.346 54.3664C173.335 56.0704 173.801 57.7434 174.691 59.1971C175.579 60.6629 176.831 61.8748 178.325 62.7154C179.83 63.5871 181.541 64.0402 183.281 64.0278C184.961 64.0341 186.611 63.5802 188.051 62.7154C189.507 61.8659 190.717 60.6536 191.564 59.1971C192.431 57.7355 192.882 56.0653 192.869 54.3664C192.876 52.6588 192.434 50.9793 191.588 49.4955C190.771 48.0142 189.579 46.7732 188.131 45.8966C186.713 45.029 185.081 44.5719 183.418 44.5762Z" fill="white"/>
<path d="M219.435 33.2783V41.5388C221.101 41.539 222.756 41.811 224.334 42.3439C225.933 42.9755 227.392 43.9137 228.629 45.1054C229.83 46.281 230.774 47.6929 231.401 49.2518C232.051 50.8605 232.38 52.581 232.368 54.3159C232.422 55.9816 232.134 57.6406 231.523 59.1913C230.912 60.7419 229.99 62.1514 228.814 63.3332C228.02 64.1212 227.13 64.8056 226.163 65.3701C225.222 65.8983 224.21 66.2887 223.158 66.5295C221.936 66.8102 220.688 66.9586 219.435 66.9723V75.273H216.212V66.9804C215.304 66.9699 214.398 66.908 213.497 66.7952C212.738 66.642 211.994 66.4238 211.273 66.143C209.697 65.5854 208.26 64.6958 207.059 63.5345C205.846 62.3744 204.891 60.9728 204.255 59.4203C202.966 56.1532 202.966 52.519 204.255 49.2518C204.887 47.6921 205.837 46.2803 207.043 45.1054C208.274 43.9174 209.724 42.9796 211.313 42.3439C212.891 41.811 214.546 41.539 216.212 41.5388V33.2783H219.435ZM216.212 44.5499C214.973 44.6905 213.753 44.9604 212.57 45.355C210.781 45.9823 209.261 47.2008 208.259 48.809C207.184 50.4906 206.624 52.4494 206.648 54.4448C206.627 55.7055 206.869 56.9568 207.357 58.1195C207.845 59.2822 208.569 60.331 209.484 61.1997C210.312 62.0513 211.297 62.7348 212.385 63.2124C213.617 63.6845 214.918 63.9563 216.236 64.0176L216.212 44.5499ZM219.435 44.5499V64.0336C220.691 63.9536 221.928 63.6821 223.101 63.2285C224.862 62.5115 226.367 61.2853 227.425 59.7074C228.484 58.1294 229.046 56.2716 229.04 54.3723C229.015 51.7212 228.018 49.1714 226.236 47.2068C225.465 46.4034 224.527 45.7794 223.488 45.3792C222.179 44.9325 220.816 44.6618 219.435 44.5741V44.5499Z" fill="white"/>
<path d="M264.268 55.282H241.916C242.026 56.3604 242.298 57.4161 242.722 58.4139C243.216 59.5173 243.925 60.5109 244.809 61.3365C245.724 62.1946 246.793 62.872 247.959 63.3332C249.737 64.0406 251.68 64.2231 253.559 63.8592C255.437 63.4953 257.171 62.6001 258.555 61.2801C259.325 60.5153 259.955 59.6215 260.416 58.6393H263.938C263.48 59.7609 262.922 60.8388 262.27 61.8598C261.671 62.679 260.97 63.4177 260.183 64.0578C258.996 65.0803 257.63 65.8746 256.154 66.4006C254.674 66.937 253.111 67.2095 251.537 67.2058C249.277 67.1992 247.059 66.5992 245.104 65.4659C243.149 64.3327 241.527 62.7059 240.4 60.7487C239.273 58.7915 238.68 56.5727 238.682 54.3146C238.684 52.0565 239.279 49.8386 240.409 47.883C241.525 45.9296 243.137 44.305 245.083 43.1731C247.032 42.0155 249.261 41.414 251.529 41.4341C253.448 41.4266 255.344 41.8561 257.073 42.6901C258.813 43.5236 260.344 44.7369 261.553 46.2406C262.726 47.6971 263.553 49.4013 263.97 51.2243C264.165 52.5681 264.264 53.9241 264.268 55.282ZM242.029 52.2467H260.852C260.599 50.8325 260.001 49.5024 259.111 48.3742C257.762 46.6112 255.846 45.3663 253.686 44.8487C251.526 44.3311 249.253 44.5725 247.25 45.5321C245.944 46.157 244.804 47.0811 243.922 48.2292C243.006 49.4084 242.359 50.7744 242.029 52.2307V52.2467Z" fill="white"/>
</svg>
