<svg width="81" height="56" viewBox="0 0 81 56" fill="none" xmlns="http://www.w3.org/2000/svg">
<path d="M15.889 40.3144C19.703 40.3144 22.7948 37.223 22.7948 33.4096C22.7948 29.5962 19.703 26.5049 15.889 26.5049C12.075 26.5049 8.98322 29.5962 8.98322 33.4096C8.98322 37.223 12.075 40.3144 15.889 40.3144Z" stroke="#BB4F03" stroke-width="0.960996" stroke-miterlimit="10"/>
<path d="M15.8957 37.1999C17.9891 37.1999 19.6861 35.5031 19.6861 33.41C19.6861 31.3169 17.9891 29.6201 15.8957 29.6201C13.8023 29.6201 12.1052 31.3169 12.1052 33.41C12.1052 35.5031 13.8023 37.1999 15.8957 37.1999Z" fill="#BB4F03"/>
<path d="M53.9033 40.3144C57.7173 40.3144 60.8091 37.223 60.8091 33.4096C60.8091 29.5962 57.7173 26.5049 53.9033 26.5049C50.0894 26.5049 46.9976 29.5962 46.9976 33.4096C46.9976 37.223 50.0894 40.3144 53.9033 40.3144Z" stroke="#BB4F03" stroke-width="0.960996" stroke-miterlimit="10"/>
<path d="M53.9101 37.1999C56.0035 37.1999 57.7005 35.5031 57.7005 33.41C57.7005 31.3169 56.0035 29.6201 53.9101 29.6201C51.8167 29.6201 50.1196 31.3169 50.1196 33.41C50.1196 35.5031 51.8167 37.1999 53.9101 37.1999Z" fill="#BB4F03"/>
<path d="M14.4333 3.28811H19.1434C19.413 3.28632 19.6724 3.39156 19.8646 3.58075C20.0567 3.76994 20.166 4.02762 20.1683 4.29725C20.1672 4.43065 20.1397 4.56252 20.0876 4.68532C20.0354 4.80813 19.9596 4.91946 19.8644 5.01296C19.7692 5.10646 19.6566 5.1803 19.5329 5.23026C19.4091 5.28022 19.2768 5.30533 19.1434 5.30414H14.4333C14.3 5.30532 14.1678 5.2802 14.0442 5.23021C13.9206 5.18022 13.8081 5.10635 13.7131 5.01282C13.6181 4.91929 13.5424 4.80795 13.4905 4.68516C13.4386 4.56237 13.4115 4.43055 13.4106 4.29725C13.4115 4.16384 13.4386 4.03191 13.4905 3.909C13.5424 3.78609 13.6179 3.67459 13.7129 3.58088C13.8079 3.48718 13.9204 3.41309 14.044 3.36285C14.1676 3.31262 14.2999 3.28722 14.4333 3.28811Z" fill="#2B1B0C" stroke="#2B1B0C" stroke-width="0.120124" stroke-miterlimit="10"/>
<path d="M1.03894 40.0236V8.48016C1.03894 8.48016 2.98799 -1.44303 20.1796 1.39377" stroke="#2B1B0C" stroke-width="0.960996" stroke-miterlimit="10"/>
<path d="M0.298775 41.1174H3.02386C3.07661 41.1162 3.12681 41.0944 3.1637 41.0567C3.20059 41.019 3.22124 40.9683 3.22123 40.9155V26.4176C3.22105 26.3824 3.21188 26.3479 3.19461 26.3173C3.17734 26.2867 3.15253 26.261 3.12254 26.2426L0.390733 24.6078C0.360545 24.5899 0.326107 24.5803 0.290975 24.5801C0.255844 24.5799 0.221293 24.589 0.190889 24.6066C0.160485 24.6242 0.135332 24.6496 0.118024 24.6802C0.100716 24.7108 0.0918797 24.7454 0.0924316 24.7805V40.9267C0.0953298 40.9791 0.118485 41.0283 0.156998 41.0638C0.19551 41.0994 0.246356 41.1186 0.298775 41.1174Z" fill="#2B1B0C"/>
<path d="M72.6963 40.3144C76.5103 40.3144 79.6021 37.223 79.6021 33.4096C79.6021 29.5962 76.5103 26.5049 72.6963 26.5049C68.8824 26.5049 65.7905 29.5962 65.7905 33.4096C65.7905 37.223 68.8824 40.3144 72.6963 40.3144Z" stroke="#2B1B0C" stroke-width="0.960996" stroke-miterlimit="10"/>
<path d="M79.6021 33.4097V11.7559" stroke="#2B1B0C" stroke-width="0.960996" stroke-linejoin="round"/>
<path d="M35.0161 40.3691C38.8301 40.3691 41.9219 37.2777 41.9219 33.4643C41.9219 29.6509 38.8301 26.5596 35.0161 26.5596C31.2022 26.5596 28.1104 29.6509 28.1104 33.4643C28.1104 37.2777 31.2022 40.3691 35.0161 40.3691Z" stroke="#2B1B0C" stroke-width="0.960996" stroke-linejoin="round"/>
<path d="M28.1081 33.4639V55.1177" stroke="#2B1B0C" stroke-width="0.960996" stroke-linejoin="round"/>
<path d="M41.3522 18.9104H40.4282V12.0303H41.3522V18.9104ZM41.4733 15.3492L44.5034 12.0303H45.6025L42.5723 15.3246L45.8021 18.9126H44.6605L41.4733 15.3492Z" fill="#2B1B0C"/>
<path d="M54.3676 12.0303V18.9037H53.4705V17.612C53.3166 17.881 53.1247 18.1265 52.9008 18.3408C52.318 18.8301 51.5756 19.0879 50.8149 19.0651C50.2295 19.0613 49.6526 18.924 49.1283 18.6637C48.6056 18.424 48.1452 18.0672 47.7826 17.6209C47.5631 17.3225 47.3962 16.9888 47.2891 16.6342C47.1677 16.2597 47.1056 15.8685 47.1052 15.4748C47.1016 14.8429 47.2724 14.2221 47.5987 13.6808C47.9315 13.1331 48.3997 12.6804 48.9583 12.3661C49.5169 12.0519 50.1471 11.8868 50.788 11.8868C51.1873 11.8842 51.5841 11.9502 51.961 12.0819C52.6046 12.3 53.1431 12.7513 53.4705 13.3467V12.0303H54.3676ZM50.8329 12.7659C50.335 12.7606 49.8445 12.8867 49.4109 13.1314C48.9905 13.3656 48.6406 13.7081 48.3976 14.1234C48.1546 14.5388 48.0274 15.0116 48.0293 15.4928C48.0264 15.9674 48.1562 16.4334 48.4038 16.8383C48.651 17.2466 48.9994 17.5841 49.4154 17.8183C49.8343 18.0611 50.3106 18.1873 50.7947 18.1838C51.2624 18.1856 51.7216 18.0591 52.1225 17.8183C52.5277 17.5817 52.8647 17.244 53.1004 16.8383C53.3417 16.4312 53.4673 15.966 53.4637 15.4928C53.4656 15.0171 53.3426 14.5493 53.1071 14.136C52.8797 13.7235 52.5479 13.3778 52.1449 13.1336C51.7501 12.892 51.2958 12.7647 50.8329 12.7659Z" fill="#2B1B0C"/>
<path d="M60.8585 9.61914V11.92C61.3222 11.92 61.7828 11.9958 62.2221 12.1442C62.667 12.3202 63.0731 12.5815 63.4176 12.9134C63.7519 13.2409 64.0146 13.6341 64.1891 14.0683C64.3702 14.5164 64.4616 14.9956 64.4583 15.4789C64.4733 15.9428 64.3933 16.4049 64.2232 16.8368C64.0531 17.2687 63.7965 17.6613 63.4692 17.9905C63.2481 18.21 63.0002 18.4006 62.7313 18.5579C62.4693 18.705 62.1876 18.8137 61.8947 18.8808C61.5547 18.959 61.2073 19.0003 60.8585 19.0041V21.3162H59.9613V19.0064C59.7086 19.0035 59.4563 18.9862 59.2055 18.9548C58.9943 18.9121 58.7872 18.8514 58.5864 18.7732C58.1479 18.6178 57.7478 18.37 57.4134 18.0466C57.0759 17.7234 56.81 17.333 56.6329 16.9006C56.2741 15.9906 56.2741 14.9784 56.6329 14.0683C56.809 13.6339 57.0733 13.2407 57.4089 12.9134C57.7517 12.5825 58.1554 12.3213 58.5977 12.1442C59.037 11.9958 59.4976 11.92 59.9613 11.92V9.61914H60.8585ZM59.9613 12.7587C59.6165 12.7979 59.2767 12.873 58.9475 12.9829C58.4497 13.1576 58.0264 13.497 57.7476 13.945C57.4483 14.4134 57.2924 14.959 57.299 15.5148C57.2933 15.8659 57.3605 16.2144 57.4964 16.5383C57.6323 16.8622 57.8339 17.1543 58.0885 17.3962C58.319 17.6334 58.5932 17.8238 58.896 17.9569C59.2391 18.0883 59.601 18.1641 59.9681 18.1811L59.9613 12.7587ZM60.8585 12.7587V18.1856C61.2081 18.1633 61.5522 18.0877 61.879 17.9614C62.3689 17.7616 62.7881 17.4201 63.0826 16.9806C63.3771 16.5411 63.5336 16.0236 63.532 15.4946C63.5251 14.7561 63.2474 14.0459 62.7514 13.4987C62.537 13.2749 62.2759 13.1011 61.9866 12.9897C61.6222 12.8652 61.2428 12.7898 60.8585 12.7654V12.7587Z" fill="#2B1B0C"/>
<path d="M73.3378 15.7479H67.1161C67.1468 16.0483 67.2224 16.3423 67.3404 16.6203C67.4778 16.9276 67.6753 17.2043 67.9213 17.4343C68.1759 17.6733 68.4735 17.862 68.7982 17.9904C69.293 18.1875 69.834 18.2383 70.3568 18.137C70.8796 18.0356 71.3624 17.7863 71.7476 17.4186C71.962 17.2056 72.1373 16.9566 72.2657 16.683H73.2458C73.1185 16.9954 72.9631 17.2957 72.7816 17.5801C72.615 17.8082 72.4198 18.014 72.2007 18.1923C71.8703 18.4771 71.4901 18.6983 71.0792 18.8448C70.6673 18.9942 70.2323 19.0701 69.7941 19.0691C69.165 19.0673 68.5475 18.9002 68.0034 18.5845C67.4593 18.2688 67.0078 17.8157 66.6941 17.2706C66.3803 16.7254 66.2154 16.1074 66.2159 15.4785C66.2163 14.8495 66.3821 14.2317 66.6967 13.687C67.0073 13.1429 67.456 12.6904 67.9975 12.3751C68.5401 12.0527 69.1607 11.8852 69.7918 11.8908C70.3261 11.8887 70.8538 12.0083 71.3349 12.2406C71.8194 12.4728 72.2455 12.8107 72.5819 13.2296C72.9086 13.6352 73.1387 14.1099 73.2548 14.6177C73.3091 14.992 73.3368 15.3697 73.3378 15.7479ZM67.1475 14.9025H72.3868C72.3165 14.5086 72.1501 14.1381 71.9024 13.8238C71.5267 13.3328 70.9934 12.986 70.3922 12.8419C69.7909 12.6977 69.1584 12.7649 68.6009 13.0322C68.2373 13.2063 67.9199 13.4636 67.6746 13.7835C67.4193 14.1119 67.2394 14.4924 67.1475 14.898V14.9025Z" fill="#2B1B0C"/>
</svg>
