<svg width="172" height="56" viewBox="0 0 172 56" fill="none" xmlns="http://www.w3.org/2000/svg">
<path fill-rule="evenodd" clip-rule="evenodd" d="M0 51.2782L0.261571 47.6477L0.815687 47.4858L0.946473 44.3169C0.946473 44.3169 2.1201 44.1205 2.44706 43.4661C2.77058 42.8116 2.77058 42.8116 2.77058 42.8116L6.74921 42.977C6.74921 42.977 7.01078 43.566 7.63029 44.0861C7.63029 44.0861 8.66625 42.7048 9.6437 40.459C10.3217 38.9056 10.7519 37.5932 10.9515 36.9319L11.0617 34.3037H10.9929L11.0651 34.252L11.1305 32.7123L11.134 31.9856L10.924 31.6962L11.0204 31.6135L10.9791 31.5584L11.5298 29.7397L11.7431 29.6984L12.0013 30.7834L12.4762 30.3839L12.7275 29.3953L13.0269 29.9154L13.0682 29.881L13.8667 28.7718C13.9871 28.2793 14.1007 27.7247 14.1007 27.7247L14.2762 27.6799L14.4552 27.9589L15.0197 27.177V27.1736V27.177L15.1195 27.0393C15.1195 27.0393 15.4981 25.1034 15.6908 25.0587C15.8801 25.0104 16.1898 26.7292 16.3344 27.1116C16.4755 27.4939 17.3566 29.3574 17.3566 29.3574L19.7899 27.208L19.6935 26.8016L20.7191 25.7269L21.8136 25.9405L30.1563 19.5406L30.1804 14.8009L29.881 14.3979L31.0477 10.7158L31.2783 10.7261L32.1388 14.0569L32.7032 14.2257L32.748 12.2658L33.2711 10.206L34.1763 11.7836C34.1763 11.7836 35.0367 10.7295 35.3086 9.69964C35.5839 8.66629 36.0141 6.88892 36.0141 6.88892L36.2138 6.88204L36.6956 7.53305L38.1033 4.39511L38.1652 3.69932L37.9759 3.55465L38.3752 2.33185L39.0463 1.91162L39.7622 2.3973L40.1614 3.59598L39.8895 3.8061L40.0754 4.41577L44.9488 14.0156L45.2448 11.7181L45.854 10.0785L46.5252 11.7629L46.9863 15.0042L47.303 18.4142L47.7022 19.761L48.8139 44.8818L49.5883 49.6903L49.7948 51.3884L0 51.2782ZM7.82303 44.248C7.9607 44.3616 8.07083 44.4478 8.16032 44.5132C8.16032 44.5132 9.36492 42.6635 10.1221 40.6209C10.4559 39.7219 10.7072 38.9848 10.8862 38.4371L10.8999 38.1374C10.5385 39.002 9.96378 40.3591 9.66435 40.9619C9.20316 41.8816 7.82303 44.248 7.82303 44.248ZM8.44598 44.7095L8.40468 46.8314L10.5317 46.8004L10.8517 39.2982C10.6693 39.7736 10.4456 40.3591 10.3045 40.7794C10.0223 41.6026 8.44598 44.7095 8.44598 44.7095ZM19.0189 46.7521C19.5145 46.7521 24.8045 46.7108 24.8045 46.7108L24.9284 44.8887L30.8757 44.5993L30.504 28.2483L19.2254 33.6286L19.0189 46.7521ZM19.2771 31.6687L19.3184 30.8661L30.3904 24.2182L30.3525 25.0587L19.2771 31.6687Z" fill="black"/>
<path fill-rule="evenodd" clip-rule="evenodd" d="M47.7022 19.761C47.7022 19.761 50.9718 27.8177 54.6338 31.4275C58.2958 35.0408 62.4637 38.878 68.9995 41.8712C75.5319 44.8611 77.7277 45.9357 77.7277 45.9357L72.3208 44.7508C72.3208 44.7508 72.3793 45.0333 68.3215 42.8323C64.2672 40.6278 58.5195 37.3555 55.2533 33.7422C51.9871 30.1289 49.1718 25.8405 48.2116 24.0907C47.2548 22.3409 46.6353 21.9448 46.6353 21.9448L47.7022 19.761Z" fill="black"/>
<path fill-rule="evenodd" clip-rule="evenodd" d="M47.606 34.6792C47.606 34.6792 53.1953 39.9355 58.5679 43.7348C63.9404 47.5306 75.6594 53.5 82.9421 54.8192C90.2213 56.1419 99.4727 55.3049 99.4727 55.3049C99.4727 55.3049 89.1992 57.127 80.8633 54.8709C72.524 52.6147 65.1381 49.1874 59.239 45.2022C53.3433 41.2203 47.0725 35.9227 47.0725 35.9227L47.606 34.6792Z" fill="black"/>
<path fill-rule="evenodd" clip-rule="evenodd" d="M49.7948 51.3884C49.7948 51.3884 68.8413 51.9292 82.732 51.7983C96.6263 51.6674 103.541 51.3402 113.714 50.5583C123.888 49.773 130.149 47.9439 130.149 47.9439C130.149 47.9439 118.543 49.773 113.429 50.1346C108.311 50.4998 91.9937 50.9751 82.615 50.8373C73.2363 50.6995 58.048 49.5112 55.1673 49.1908C52.2832 48.8705 52.2832 48.8705 52.2832 48.8705L52.3279 47.8165L47.5852 46.4111L49.7948 51.3884Z" fill="black"/>
<path fill-rule="evenodd" clip-rule="evenodd" d="M48.8139 44.8818C48.8139 44.8818 72.5755 44.9094 81.8166 44.9094C91.061 44.9094 103.076 45.9462 112.128 47.5995C121.176 49.2529 134.743 51.7398 140.061 52.0498C144.339 52.3013 153.755 51.5779 159.864 49.1978C162.222 48.2781 165.161 46.6144 167.137 45.0265C170.258 42.5154 170.671 41.4924 170.671 41.4924C170.671 41.4924 168.93 44.3996 165.192 46.9795C161.455 49.556 153.384 54.7916 139.958 54.0166C126.531 53.2416 119.768 51.8225 110.94 50.2793C102.109 48.7397 91.5256 47.5995 81.8682 47.6512C72.2142 47.7029 52.3279 47.8165 52.3279 47.8165L47.5852 48.7913L48.8139 44.8818Z" fill="black"/>
<path fill-rule="evenodd" clip-rule="evenodd" d="M15.6942 23.7913C15.6185 23.7913 15.5565 23.8533 15.5565 23.9256V24.4147H14.968C14.8922 24.4147 14.8337 24.4767 14.8337 24.549C14.8337 24.6248 14.8922 24.6834 14.968 24.6834H15.5565V26.1886C15.5565 26.261 15.6185 26.323 15.6942 26.323C15.7664 26.323 15.8284 26.261 15.8284 26.1886V24.6834H16.41C16.4858 24.6834 16.5477 24.6248 16.5477 24.549C16.5477 24.4733 16.4858 24.4147 16.41 24.4147H15.8284V23.9256C15.8284 23.8533 15.7664 23.7913 15.6942 23.7913Z" fill="black"/>
<path fill-rule="evenodd" clip-rule="evenodd" d="M39.0601 0C38.9741 0 38.9018 0.0723345 38.9018 0.158447V0.72679H38.2169C38.1274 0.72679 38.0586 0.799124 38.0586 0.885237C38.0586 0.971349 38.1274 1.04368 38.2169 1.04368H38.9018V2.79349C38.9018 2.88305 38.9741 2.95194 39.0601 2.95194C39.1496 2.95194 39.2185 2.88305 39.2185 2.79349V1.04368H39.8999C39.986 1.04368 40.0582 0.971349 40.0582 0.885237C40.0582 0.79568 39.986 0.72679 39.8999 0.72679H39.2185V0.158447C39.2185 0.0723345 39.1496 0 39.0601 0Z" fill="black"/>
<path fill-rule="evenodd" clip-rule="evenodd" d="M45.854 8.87988C45.7989 8.87988 45.7542 8.92466 45.7542 8.97977V9.33456H45.4926C45.4376 9.33456 45.3928 9.37934 45.3928 9.43445C45.3928 9.48612 45.4376 9.53089 45.4926 9.53089H45.7542V10.6297C45.7542 10.6848 45.7989 10.7296 45.854 10.7296C45.9091 10.7296 45.9538 10.6848 45.9538 10.6297V9.53089H46.2429C46.298 9.53089 46.3427 9.48956 46.3427 9.43445C46.3427 9.37934 46.298 9.33456 46.2429 9.33456H45.9538V8.97977C45.9538 8.92466 45.9091 8.87988 45.854 8.87988Z" fill="black"/>
<path fill-rule="evenodd" clip-rule="evenodd" d="M2.88071 42.0815C2.81532 42.0815 2.76025 42.1367 2.76025 42.2021C2.76025 43.0977 2.76025 42.4777 2.76025 44.1792C2.76025 44.2447 2.81532 44.2998 2.88071 44.2998C2.94266 44.2998 2.99773 44.2447 2.99773 44.1792C2.99773 42.4845 2.99773 43.0942 2.99773 42.2021C2.99773 42.1367 2.94266 42.0815 2.88071 42.0815Z" fill="black"/>
<path fill-rule="evenodd" clip-rule="evenodd" d="M6.66316 42.302C6.59777 42.302 6.54614 42.3571 6.54614 42.4226C6.54614 43.3181 6.54614 42.6981 6.54614 44.3997C6.54614 44.4651 6.59777 44.5203 6.66316 44.5203C6.72855 44.5203 6.78362 44.4651 6.78362 44.3997C6.78362 42.705 6.78362 43.3147 6.78362 42.4226C6.78362 42.3571 6.72855 42.302 6.66316 42.302Z" fill="black"/>
<path fill-rule="evenodd" clip-rule="evenodd" d="M11.6466 28.7202C11.5881 28.7202 11.5434 28.7684 11.5434 28.8235V29.1956H11.0959C11.0374 29.1956 10.9927 29.2403 10.9927 29.2989C10.9927 29.354 11.0374 29.4022 11.0959 29.4022H11.5434V30.5458C11.5434 30.6009 11.5881 30.6457 11.6466 30.6457C11.7017 30.6457 11.7499 30.6009 11.7499 30.5458V29.4022H12.1938C12.2489 29.4022 12.2971 29.354 12.2971 29.2989C12.2971 29.2403 12.2489 29.1956 12.1938 29.1956H11.7499V28.8235C11.7499 28.7684 11.7017 28.7202 11.6466 28.7202Z" fill="black"/>
<path fill-rule="evenodd" clip-rule="evenodd" d="M14.1869 26.5813C14.1284 26.5813 14.0836 26.6261 14.0836 26.6846V27.0532H13.6362C13.5777 27.0532 13.533 27.1014 13.533 27.1565C13.533 27.2151 13.5777 27.2599 13.6362 27.2599H14.0836V28.4034C14.0836 28.462 14.1284 28.5068 14.1869 28.5068C14.242 28.5068 14.2901 28.462 14.2901 28.4034V27.2599H14.7341C14.7892 27.2599 14.8374 27.2151 14.8374 27.1565C14.8374 27.1014 14.7892 27.0532 14.7341 27.0532H14.2901V26.6846C14.2901 26.6261 14.242 26.5813 14.1869 26.5813Z" fill="black"/>
<path fill-rule="evenodd" clip-rule="evenodd" d="M36.1138 5.46997C36.0587 5.46997 36.014 5.51475 36.014 5.56986V5.92465H35.7524C35.6973 5.92465 35.6526 5.96942 35.6526 6.02454C35.6526 6.0762 35.6973 6.12098 35.7524 6.12098H36.014V7.21978C36.014 7.27489 36.0587 7.31967 36.1138 7.31967C36.1688 7.31967 36.2136 7.27489 36.2136 7.21978V6.12098H36.5027C36.5578 6.12098 36.6025 6.0762 36.6025 6.02454C36.6025 5.96942 36.5578 5.92465 36.5027 5.92465H36.2136V5.56986C36.2136 5.51475 36.1688 5.46997 36.1138 5.46997Z" fill="black"/>
<path fill-rule="evenodd" clip-rule="evenodd" d="M31.1614 9.23462C31.0994 9.23462 31.0478 9.28629 31.0478 9.34829V9.76163H30.7415C30.6796 9.76163 30.6279 9.81329 30.6279 9.87874C30.6279 9.94074 30.6796 9.99241 30.7415 9.99241H31.0478V11.2669C31.0478 11.3323 31.0994 11.384 31.1614 11.384C31.2268 11.384 31.2784 11.3323 31.2784 11.2669V9.99241H31.6157C31.6777 9.99241 31.7293 9.94074 31.7293 9.87874C31.7293 9.81329 31.6777 9.76163 31.6157 9.76163H31.2784V9.34829C31.2784 9.28629 31.2268 9.23462 31.1614 9.23462Z" fill="black"/>
<path d="M71.4123 30.2427C70.8616 28.6065 69.0409 23.9358 68.8413 23.1918H50.8342L50.8755 23.9771C53.6048 24.1769 53.8526 24.7315 53.8526 27.8522V39.7702C53.8526 42.5533 53.567 43.3731 50.8342 43.5763V44.1275H62.5361V43.5763C59.3146 43.3731 59.0668 42.5533 59.0703 39.7702L59.084 25.5341C59.084 24.3939 59.1253 24.4008 60.5123 24.3939L63.4585 24.3836C65.9778 24.3698 69.5193 27.9796 70.4692 30.3874L71.4123 30.2427ZM132.689 22.8439C124.453 22.8439 120.261 27.7523 120.298 33.515C120.347 40.7863 125.509 44.651 132.603 44.651C139.286 44.651 144.384 41.2961 144.456 33.7733C144.525 26.533 139.169 22.8439 132.689 22.8439ZM132.4 24.1425C136.313 24.1425 139.775 26.3435 139.93 34.1522C140.068 41.0722 136.024 43.3283 132.885 43.3283C128.607 43.3283 124.497 40.4556 124.556 33.6321C124.618 26.4675 128.975 24.1425 132.4 24.1425ZM85.0828 22.7612C76.8502 22.7612 72.6582 27.6696 72.696 33.4323C72.7408 40.7071 77.9068 44.5684 85.0002 44.5684C91.684 44.5684 96.7812 41.2169 96.8534 33.6906C96.9223 26.4503 91.567 22.7612 85.0828 22.7612ZM84.7937 24.0633C88.7069 24.0633 92.1727 26.2643 92.3276 34.0695C92.4618 40.9895 88.4212 43.2491 85.2824 43.2491C81.0009 43.2491 76.8915 40.373 76.95 33.5494C77.0119 26.3883 81.3692 24.0633 84.7937 24.0633ZM99.328 23.1918V23.7429C101.854 24.0116 102.14 24.8004 102.14 27.5491V39.9045C102.14 42.6532 101.854 43.442 99.125 43.6418V44.1275H110.366V43.6418C107.227 43.442 106.969 42.6532 106.979 39.9045L107.007 34.2521C107.716 34.7205 109.399 35.158 110.655 35.1373C114.417 35.0822 118.092 33.7389 118.092 29.1508C118.092 26.936 116.994 25.4376 115.16 24.4318C113.57 23.5604 112.19 22.9886 109.099 23.1918C105.537 23.426 102.505 23.4329 99.328 23.1918ZM106.979 25.8062C106.979 24.6557 107.647 24.4318 108.693 24.4318C110.772 24.4318 113.16 25.3687 113.16 29.2576C113.16 33.7836 110.09 33.8353 108.91 33.8353C108.135 33.8353 107.509 33.6459 106.979 33.4805V25.8062ZM147.006 23.1918V23.7429C149.698 23.9461 150.025 24.7349 150.025 27.5835V39.7357C150.025 42.5533 149.656 43.4076 146.724 43.5763V44.1275H155.855C163.316 44.1275 172 44.3307 172 34.1178C172 24.4973 163.44 23.1918 157.524 23.1918C155.889 23.2503 154.884 23.4984 152.503 23.4708C149.488 23.4364 147.725 23.2262 147.006 23.1918ZM155.242 26.5433C155.242 25.5031 155.318 25.0208 155.61 24.8348C155.886 24.6523 156.736 24.5007 157.755 24.5007C162.842 24.5007 167.564 26.9394 167.526 34.0247C167.491 40.4625 164.759 43.6452 157.854 43.2973C155.82 43.194 155.242 41.9815 155.242 39.7357V26.5433Z" fill="black"/>
<path fill-rule="evenodd" clip-rule="evenodd" d="M51.6291 28.2932H51.2161V45.433H51.6291V28.2932Z" fill="black"/>
<path fill-rule="evenodd" clip-rule="evenodd" d="M49.3438 37.1765H49.5743V46.7729H49.3438V37.1765Z" fill="black"/>
<path fill-rule="evenodd" clip-rule="evenodd" d="M52.8269 39.8633H53.0575V49.4597H52.8269V39.8633Z" fill="black"/>
<path fill-rule="evenodd" clip-rule="evenodd" d="M55.4839 42.2295H55.7145V49.4113H55.4839V42.2295Z" fill="black"/>
<path fill-rule="evenodd" clip-rule="evenodd" d="M58.2717 44.1274H58.5023V50.2311H58.2717V44.1274Z" fill="black"/>
<path fill-rule="evenodd" clip-rule="evenodd" d="M60.7637 38.2546H60.9943V50.0245H60.7637V38.2546Z" fill="black"/>
<path fill-rule="evenodd" clip-rule="evenodd" d="M63.0488 39.6633H63.2794V50.2999H63.0488V39.6633Z" fill="black"/>
<path fill-rule="evenodd" clip-rule="evenodd" d="M65.4548 40.9861H65.6854V51.0509H65.4548V40.9861Z" fill="black"/>
<path d="M60.065 21.194C63.493 21.194 65.8506 19.2169 67.3099 17.1019C67.3821 16.9814 67.3339 16.9332 67.2617 16.8815L66.945 16.6404C66.8728 16.568 66.8211 16.5921 66.7489 16.7127C64.3087 20.1641 59.0669 21.1044 56.0761 17.7598C54.1797 15.6656 53.7426 12.9169 53.7426 11.5046C53.7185 7.95334 55.4703 4.08517 59.8207 4.08517C61.7412 4.08517 63.0318 4.91185 64.0505 5.95898C65.0727 7.0061 65.6062 8.17379 65.9469 8.97636C66.0192 9.16925 66.0674 9.19336 66.1913 9.16925L66.5561 9.0728C66.6525 9.04869 66.6766 8.95225 66.6525 8.82824C66.532 8.14968 66.0433 4.57084 66.0433 4.10928C66.0433 3.76827 65.9951 3.72005 65.7783 3.72005C63.8853 3.72005 61.8926 3.23438 59.8689 3.23438C57.2187 3.23438 55.0332 4.37795 53.7942 5.6903C52.0424 7.54 51.3127 9.87537 51.3127 12.1384C51.3127 14.4738 52.1628 17.2983 53.9147 18.9516C55.374 20.2881 57.1946 21.194 60.065 21.194ZM76.4476 16.4923V12.7722C76.4476 12.1143 76.4235 11.5563 75.9141 11.0431C75.5734 10.7262 75.1122 10.3886 73.9696 10.3886C72.8751 10.3886 72.025 10.6297 71.0028 11.2394C70.0082 11.8215 69.3267 12.7481 69.3267 13.5265C69.3267 14.0846 69.5194 14.305 69.9083 14.305C70.9064 14.305 71.199 13.7677 71.199 12.9169C71.199 12.4794 70.9787 12.1143 71.3195 11.7974C71.6602 11.4805 72.4139 11.2876 72.8992 11.2876C73.6048 11.2876 74.09 11.5046 74.3585 11.8215C74.6269 12.1384 74.651 12.7722 74.6992 13.1855V14.7425C74.3103 15.0835 73.0472 15.6656 71.9527 16.1547C70.0322 17.0055 69.5194 17.9768 69.5194 19.0963C69.5194 20.6291 70.3971 21.1217 70.9787 21.1217C71.5156 21.1217 71.9527 21.1217 72.4139 20.9736C73.5084 20.605 74.3103 20.0952 74.8197 19.4855H74.8679C75.0881 20.4844 75.7214 21.1217 76.5956 21.1217C77.8346 21.1217 78.2958 20.2881 78.492 19.923C78.6365 19.6819 78.5884 19.5579 78.5161 19.4855L78.2717 19.2926C78.1754 19.2169 78.1272 19.2685 78.0308 19.3891C77.0086 20.8186 76.4476 18.7002 76.4476 17.9286V16.4923ZM74.6751 18.466C74.6751 19.1204 73.3845 19.9712 72.6824 19.9712C71.9527 19.9712 71.4158 19.5338 71.4158 18.6347C71.4158 16.6163 73.8009 16.1271 74.6751 15.4727V18.466ZM81.2626 14.5943V19.1686C81.2385 19.7301 81.1421 20.0229 80.6775 20.0229H79.5107C79.318 20.0229 79.2698 20.0711 79.2698 20.1917V20.7255C79.2698 20.853 79.318 20.9012 79.4626 20.9012C79.6587 20.9012 80.8978 20.8289 82.2366 20.8289C84.1054 20.8289 85.0072 20.9012 85.1517 20.9012C85.2722 20.9012 85.3238 20.8013 85.3238 20.605V20.2158C85.3238 19.8644 83.9987 20.0229 83.6683 20.0229C83.159 20.0229 83.0867 19.8024 83.0385 19.3891C83.0144 19.1204 83.0144 16.8815 83.0144 14.0122V11.8456H85.6886C85.8814 11.8456 85.9777 11.8215 86.0018 11.7251L86.1257 10.9225C86.1498 10.8261 86.1257 10.6779 85.9536 10.6779H83.0144V10.1923C83.0144 8.49068 82.9628 6.37231 83.8645 5.22874C84.398 4.54673 85.0554 4.37795 85.6886 4.37795C86.1498 4.37795 86.4906 4.54673 86.8037 4.93596C86.9036 5.05996 87.1686 5.37685 87.3888 5.49741C87.5816 5.59386 87.8259 5.64208 88.0703 5.64208C88.4592 5.64208 89.089 5.18052 89.089 4.59495C89.089 3.67183 88.0221 3.23438 86.8795 3.23438C85.5165 3.23438 84.1812 3.74416 82.8905 5.15641C81.944 6.22765 81.2626 7.80867 81.2626 10.2164V10.6779H79.8515C79.6587 10.6779 79.5865 10.7021 79.5624 10.8502L79.4626 11.5804C79.4144 11.7974 79.4626 11.8456 79.5865 11.8456H81.2626V14.5943ZM95.1189 14.3532C95.5079 14.3532 95.8004 14.305 95.8004 13.964C95.8004 13.0133 95.0226 10.3886 92.2245 10.3886C91.0095 10.3886 89.7946 10.6056 88.7483 11.6768C87.4611 12.9651 87.2168 14.5943 87.2168 15.545C87.2168 17.2466 87.437 18.1491 88.2871 19.3891C89.1889 20.7014 90.7204 21.1217 92.104 21.1217C94.2688 21.1217 95.5319 19.4373 95.969 18.466C96.0929 18.1973 96.0413 18.125 95.969 18.1008L95.6524 17.9286C95.5801 17.9045 95.4838 17.9527 95.4356 18.0492C93.9178 21.0011 89.0409 19.9609 89.0409 15.5209C89.0409 14.9595 89.065 14.5702 89.1131 14.3532H95.1189ZM89.213 13.623C89.6741 11.8215 90.6963 11.1154 91.7633 11.1154C93.343 11.1154 93.6356 12.724 93.6356 13.282C93.6356 13.5024 93.4428 13.623 92.9782 13.623H89.213Z" fill="black"/>
</svg>
