<svg width="96" height="54" viewBox="0 0 96 54" fill="none" xmlns="http://www.w3.org/2000/svg">
<path d="M19.4244 11.4698C19.3457 10.9275 19.1488 10.4162 18.8338 9.93586C18.5345 9.45556 18.1407 9.04496 17.6525 8.70411C17.18 8.34772 16.6366 8.06882 16.0223 7.86743C15.4238 7.66603 14.7937 7.56533 14.1322 7.56533C13.5337 7.56533 12.9745 7.62728 12.4548 7.75126C11.935 7.87516 11.4782 8.06882 11.0845 8.33225C10.7064 8.58013 10.3993 8.90551 10.163 9.30838C9.94254 9.71125 9.83231 10.1915 9.83231 10.7493C9.83231 11.4466 9.98193 12.0044 10.2812 12.4227C10.5962 12.8256 10.9899 13.1587 11.4625 13.4221C11.9507 13.6855 12.4863 13.8947 13.069 14.0496C13.6518 14.2045 14.2188 14.375 14.7701 14.5609L21.2673 16.6991C22.165 17.009 23.0077 17.4351 23.7952 17.9774C24.5828 18.5196 25.2601 19.1781 25.8271 19.9529C26.4098 20.7276 26.8666 21.6185 27.1974 22.6256C27.5282 23.6327 27.6936 24.7638 27.6936 26.0188C27.6936 27.7232 27.3707 29.2803 26.7249 30.6903C26.0949 32.1002 25.2049 33.3088 24.0551 34.3159C22.9053 35.3231 21.5271 36.1055 19.9206 36.6633C18.314 37.2211 16.5342 37.5 14.5811 37.5C13.2108 37.5 11.9114 37.345 10.6828 37.0352C9.47002 36.7407 8.35956 36.3069 7.35154 35.7337C6.3435 35.1603 5.46146 34.4786 4.70543 33.6884C3.9494 32.8827 3.35875 31.9763 2.93348 30.9692H0.5V23.9735H9.05262V25.4146C9.05262 26.1117 9.16285 26.7548 9.38338 27.3436C9.61964 27.9324 9.96613 28.4437 10.4229 28.8775C10.8797 29.3113 11.4546 29.6522 12.1476 29.9001C12.8406 30.1325 13.6518 30.2487 14.5811 30.2487C15.9987 30.2487 17.0776 29.9311 17.8178 29.2958C18.5581 28.6451 18.9283 27.7464 18.9283 26.5998C18.9283 26.011 18.7944 25.523 18.5267 25.1357C18.2746 24.7328 17.9439 24.3997 17.5343 24.1363C17.1248 23.8574 16.6681 23.625 16.1641 23.439C15.66 23.2531 15.1639 23.0826 14.6756 22.9277L9.26529 21.2079C8.24147 20.898 7.24918 20.4642 6.28837 19.9064C5.34333 19.3486 4.50067 18.6513 3.76039 17.8147C3.03586 16.978 2.45308 16.0018 2.01206 14.8863C1.5868 13.7552 1.37416 12.4692 1.37416 11.0282C1.37416 9.35486 1.68918 7.86743 2.3192 6.56592C2.94923 5.24894 3.83127 4.1411 4.96532 3.24239C6.09936 2.34375 7.44605 1.66199 9.00536 1.19716C10.5647 0.732338 12.2736 0.5 14.1322 0.5C15.5971 0.5 16.9516 0.670387 18.1958 1.01123C19.4402 1.33668 20.5506 1.77823 21.5272 2.33602C22.5194 2.89381 23.3543 3.53683 24.0315 4.265C24.7246 4.97778 25.2522 5.7215 25.6145 6.49616H27.9771V13.5151H19.4244V11.4698ZM30.9067 1.54582H44.657C46.2951 1.54582 47.8623 1.75495 49.3586 2.17337C50.8707 2.59163 52.2725 3.18044 53.564 3.9397C54.8713 4.69889 56.0527 5.61307 57.1079 6.68209C58.179 7.73571 59.0925 8.91324 59.8485 10.2148C60.6046 11.5163 61.1873 12.9185 61.5969 14.4214C62.0064 15.9244 62.2111 17.4893 62.2111 19.1162C62.2111 20.7431 62.0064 22.308 61.5969 23.8109C61.1873 25.3138 60.6046 26.7238 59.8485 28.0408C59.0925 29.3423 58.179 30.5354 57.1079 31.6199C56.0527 32.689 54.8713 33.6109 53.564 34.3856C52.2725 35.1449 50.8707 35.7337 49.3586 36.1519C47.8623 36.5704 46.2951 36.7795 44.657 36.7795H30.9067V30.4114H33.7654V7.93719H30.9067V1.54582ZM41.6093 7.93719V30.4114H44.6098C45.8855 30.4114 47.0905 30.117 48.2245 29.5282C49.3586 28.9394 50.343 28.1415 51.1778 27.1343C52.0126 26.1117 52.6741 24.9187 53.1623 23.5553C53.6507 22.1763 53.8948 20.6966 53.8948 19.1162C53.8948 17.5512 53.6507 16.0871 53.1623 14.7236C52.6741 13.3601 52.0126 12.1748 51.1778 11.1677C50.343 10.1605 49.3586 9.37033 48.2245 8.79707C47.0905 8.22382 45.8855 7.93719 44.6098 7.93719H41.6093ZM66.3221 1.54582H82.8607C84.7031 1.54582 86.3966 1.83245 87.9397 2.40571C89.4835 2.96349 90.8141 3.72276 91.933 4.68342C93.0512 5.644 93.9252 6.75185 94.555 8.00687C95.1855 9.2619 95.5 10.5711 95.5 11.9347C95.5 13.577 95.2482 15.1187 94.744 16.5596C94.2556 17.9851 93.492 19.2246 92.4524 20.2782C91.4129 21.3319 90.0974 22.1685 88.5067 22.7883C86.916 23.3926 85.0335 23.6947 82.8607 23.6947H77.8754V30.4114H81.1596V36.7795H66.3221V30.4114H70.0314V7.93719H66.3221V1.54582ZM77.8754 7.93719V17.3963H81.1119C82.9075 17.3963 84.3326 17.0245 85.3881 16.2807C86.4435 15.537 86.9712 14.3595 86.9712 12.7481C86.9712 11.2452 86.4752 10.0676 85.4826 9.21542C84.4907 8.36326 83.0338 7.93719 81.1119 7.93719H77.8754Z" fill="white"/>
<path d="M19.4244 18.7663C19.3457 18.2093 19.1488 17.6842 18.8338 17.1908C18.5345 16.6976 18.1407 16.2759 17.6525 15.9258C17.18 15.5598 16.6366 15.2734 16.0223 15.0665C15.4238 14.8597 14.7937 14.7563 14.1322 14.7563C13.5337 14.7563 12.9745 14.8199 12.4548 14.9472C11.935 15.0745 11.4782 15.2734 11.0845 15.5439C10.7064 15.7985 10.3993 16.1326 10.163 16.5464C9.94254 16.9602 9.83231 17.4534 9.83231 18.0263C9.83231 18.7424 9.98193 19.3152 10.2812 19.7449C10.5962 20.1586 10.9899 20.5008 11.4625 20.7713C11.9507 21.0418 12.4863 21.2566 13.069 21.4157C13.6518 21.5748 14.2188 21.7499 14.7701 21.9409L21.2673 24.1368C22.165 24.4551 23.0077 24.8927 23.7952 25.4497C24.5828 26.0066 25.2601 26.6829 25.8271 27.4785C26.4098 28.2742 26.8666 29.1892 27.1974 30.2235C27.5282 31.2578 27.6936 32.4195 27.6936 33.7084C27.6936 35.4588 27.3707 37.0581 26.7249 38.5061C26.0949 39.9542 25.2049 41.1954 24.0551 42.2297C22.9053 43.2641 21.5271 44.0678 19.9206 44.6407C18.314 45.2136 16.5342 45.5 14.5811 45.5C13.2108 45.5 11.9114 45.3404 10.6828 45.0226C9.47002 44.7201 8.35956 44.2748 7.35154 43.6858C6.3435 43.097 5.46146 42.3968 4.70543 41.5853C3.9494 40.7578 3.35875 39.8269 2.93348 38.7925H0.5V31.6079H9.05262V33.0878C9.05262 33.8038 9.16285 34.4642 9.38338 35.0689C9.61964 35.6737 9.96613 36.1988 10.4229 36.6443C10.8797 37.0898 11.4546 37.44 12.1476 37.6946C12.8406 37.9333 13.6518 38.0526 14.5811 38.0526C15.9987 38.0526 17.0776 37.7264 17.8178 37.074C18.5581 36.4056 18.9283 35.4827 18.9283 34.3051C18.9283 33.7004 18.7944 33.1992 18.5267 32.8014C18.2746 32.3876 17.9439 32.0455 17.5343 31.775C17.1248 31.4886 16.6681 31.2499 16.1641 31.0589C15.66 30.868 15.1639 30.6929 14.6756 30.5338L9.26529 28.7675C8.24147 28.4492 7.24918 28.0036 6.28837 27.4308C5.34333 26.8579 4.50067 26.1418 3.76039 25.2826C3.03586 24.4233 2.45308 23.4208 2.01206 22.275C1.5868 21.1134 1.37416 19.7926 1.37416 18.3127C1.37416 16.5941 1.68918 15.0665 2.3192 13.7298C2.94923 12.3773 3.83127 11.2395 4.96532 10.3165C6.09936 9.39358 7.44605 8.69339 9.00536 8.216C10.5647 7.73862 12.2736 7.5 14.1322 7.5C15.5971 7.5 16.9516 7.67499 18.1958 8.02505C19.4402 8.35929 20.5506 8.81277 21.5272 9.38563C22.5194 9.95849 23.3543 10.6189 24.0315 11.3667C24.7246 12.0988 25.2522 12.8626 25.6145 13.6582H27.9771V20.8668H19.4244V18.7663ZM30.9067 8.57408H44.657C46.2951 8.57408 47.8623 8.78886 49.3586 9.21859C50.8707 9.64816 52.2725 10.2529 53.564 11.0326C54.8713 11.8124 56.0527 12.7512 57.1079 13.8491C58.179 14.9312 59.0925 16.1406 59.8485 17.4773C60.6046 18.8139 61.1873 20.2541 61.5969 21.7976C62.0064 23.3412 62.2111 24.9484 62.2111 26.6192C62.2111 28.2901 62.0064 29.8973 61.5969 31.4408C61.1873 32.9843 60.6046 34.4325 59.8485 35.785C59.0925 37.1217 58.179 38.347 57.1079 39.4609C56.0527 40.5589 54.8713 41.5057 53.564 42.3013C52.2725 43.0811 50.8707 43.6858 49.3586 44.1152C47.8623 44.5452 46.2951 44.7599 44.657 44.7599H30.9067V38.2197H33.7654V15.1382H30.9067V8.57408ZM41.6093 15.1382V38.2197H44.6098C45.8855 38.2197 47.0905 37.9174 48.2245 37.3127C49.3586 36.7079 50.343 35.8884 51.1778 34.8541C52.0126 33.8038 52.6741 32.5786 53.1623 31.1783C53.6507 29.762 53.8948 28.2423 53.8948 26.6192C53.8948 25.012 53.6507 23.5083 53.1623 22.108C52.6741 20.7076 52.0126 19.4903 51.1778 18.4559C50.343 17.4216 49.3586 16.61 48.2245 16.0213C47.0905 15.4325 45.8855 15.1382 44.6098 15.1382H41.6093ZM66.3221 8.57408H82.8607C84.7031 8.57408 86.3966 8.86845 87.9397 9.4572C89.4835 10.0301 90.8141 10.8098 91.933 11.7965C93.0512 12.783 93.9252 13.9208 94.555 15.2097C95.1855 16.4987 95.5 17.8433 95.5 19.2437C95.5 20.9304 95.2482 22.5137 94.744 23.9936C94.2556 25.4576 93.492 26.7306 92.4524 27.8127C91.4129 28.8948 90.0974 29.7541 88.5067 30.3906C86.916 31.0112 85.0335 31.3214 82.8607 31.3214H77.8754V38.2197H81.1596V44.7599H66.3221V38.2197H70.0314V15.1382H66.3221V8.57408ZM77.8754 15.1382V24.8529H81.1119C82.9075 24.8529 84.3326 24.471 85.3881 23.7072C86.4435 22.9434 86.9712 21.734 86.9712 20.0791C86.9712 18.5355 86.4752 17.3261 85.4826 16.4509C84.4907 15.5758 83.0338 15.1382 81.1119 15.1382H77.8754Z" fill="white" fill-opacity="0.25"/>
<path d="M19.4244 26.7664C19.3457 26.2096 19.1488 25.6841 18.8338 25.1907C18.5345 24.6973 18.1407 24.2756 17.6525 23.9258C17.18 23.5599 16.6366 23.2735 16.0223 23.0665C15.4238 22.8595 14.7937 22.7564 14.1322 22.7564C13.5337 22.7564 12.9745 22.8198 12.4548 22.9474C11.935 23.0742 11.4782 23.2735 11.0845 23.5439C10.7064 23.7982 10.3993 24.1328 10.163 24.546C9.94254 24.96 9.83231 25.4534 9.83231 26.0263C9.83231 26.7428 9.98193 27.3156 10.2812 27.7449C10.5962 28.1589 10.9899 28.5011 11.4625 28.7715C11.9507 29.0418 12.4863 29.2565 13.069 29.4161C13.6518 29.575 14.2188 29.7499 14.7701 29.9409L21.2673 32.1368C22.165 32.4553 23.0077 32.893 23.7952 33.4498C24.5828 34.0067 25.2601 34.6826 25.8271 35.4785C26.4098 36.2744 26.8666 37.1895 27.1974 38.2237C27.5282 39.2579 27.6936 40.4197 27.6936 41.7082C27.6936 43.4589 27.3707 45.0583 26.7249 46.5057C26.0949 47.9539 25.2049 49.1951 24.0551 50.2301C22.9053 51.2643 21.5271 52.0678 19.9206 52.6407C18.314 53.2136 16.5342 53.5 14.5811 53.5C13.2108 53.5 11.9114 53.3404 10.6828 53.0226C9.47002 52.7201 8.35956 52.2748 7.35154 51.6859C6.3435 51.097 5.46146 50.3966 4.70543 49.5854C3.9494 48.7575 3.35875 47.8271 2.93348 46.7929H0.5V39.6077H9.05262V41.088C9.05262 41.8037 9.16285 42.4644 9.38338 43.0686C9.61964 43.6735 9.96613 44.199 10.4229 44.6443C10.8797 45.0896 11.4546 45.4402 12.1476 45.6946C12.8406 45.9329 13.6518 46.0528 14.5811 46.0528C15.9987 46.0528 17.0776 45.7267 17.8178 45.0744C18.5581 44.4052 18.9283 43.4826 18.9283 42.3047C18.9283 41.7006 18.7944 41.1995 18.5267 40.8016C18.2746 40.3876 17.9439 40.0454 17.5343 39.775C17.1248 39.4886 16.6681 39.2495 16.1641 39.0585C15.66 38.8676 15.1639 38.6927 14.6756 38.5338L9.26529 36.7671C8.24147 36.4493 7.24918 36.0033 6.28837 35.4304C5.34333 34.8575 4.50067 34.1418 3.76039 33.2826C3.03586 32.4233 2.45308 31.4204 2.01206 30.2746C1.5868 29.1136 1.37416 27.7922 1.37416 26.3127C1.37416 24.5941 1.68918 23.0665 2.3192 21.7298C2.94923 20.3773 3.83127 19.2395 4.96532 18.3165C6.09936 17.3936 7.44605 16.6934 9.00536 16.216C10.5647 15.7386 12.2736 15.5 14.1322 15.5C15.5971 15.5 16.9516 15.675 18.1958 16.025C19.4402 16.3593 20.5506 16.8128 21.5271 17.3856C22.5194 17.9585 23.3543 18.6189 24.0315 19.3667C24.7246 20.0988 25.2522 20.8626 25.6145 21.6582H27.9771V28.8669H19.4244V26.7664ZM30.9067 16.5741H44.657C46.2951 16.5741 47.8623 16.7889 49.3586 17.2186C50.8707 17.6482 52.2725 18.2529 53.564 19.0326C54.8714 19.8124 56.0527 20.7512 57.1079 21.8491C58.179 22.9313 59.0925 24.1404 59.8485 25.4771C60.6046 26.8138 61.1873 28.2544 61.5969 29.798C62.0064 31.3409 62.2111 32.948 62.2111 34.6192C62.2111 36.2905 62.0064 37.8975 61.5969 39.4404C61.1873 40.9841 60.6046 42.4323 59.8485 43.785C59.0925 45.1217 58.179 46.3469 57.1079 47.4605C56.0527 48.5589 54.8714 49.506 53.564 50.3011C52.2725 51.081 50.8707 51.6859 49.3586 52.1152C47.8623 52.5452 46.2951 52.7599 44.657 52.7599H30.9067V46.2201H33.7654V23.1383H30.9067V16.5741ZM41.6093 23.1383V46.2201H44.6098C45.8855 46.2201 47.0905 45.9176 48.2245 45.3127C49.3586 44.7077 50.343 43.8881 51.1778 42.8539C52.0126 41.8037 52.6741 40.5785 53.1623 39.1785C53.6507 37.7623 53.8948 36.2423 53.8948 34.6192C53.8948 33.0122 53.6507 31.5082 53.1623 30.1081C52.6741 28.7073 52.0126 27.4905 51.1778 26.4556C50.343 25.4214 49.3586 24.6102 48.2245 24.0213C47.0905 23.4324 45.8855 23.1383 44.6098 23.1383H41.6093ZM66.3221 16.5741H82.8607C84.7031 16.5741 86.3966 16.8684 87.9397 17.4572C89.4835 18.0301 90.8141 18.8098 91.933 19.7965C93.0512 20.783 93.9252 21.9208 94.555 23.2093C95.1855 24.4987 95.5 25.843 95.5 27.2438C95.5 28.9303 95.2482 30.5137 94.744 31.9932C94.2556 33.4575 93.492 34.7307 92.4524 35.8123C91.4129 36.8946 90.0974 37.7539 88.5067 38.391C86.916 39.0112 85.0335 39.3213 82.8607 39.3213H77.8754V46.2201H81.1596V52.7599H66.3221V46.2201H70.0314V23.1383H66.3221V16.5741ZM77.8754 23.1383V32.8533H81.1119C82.9075 32.8533 84.3326 32.4714 85.3881 31.7076C86.4435 30.9438 86.9712 29.7339 86.9712 28.0794C86.9712 26.5358 86.4752 25.3259 85.4826 24.4513C84.4907 23.576 83.0338 23.1383 81.1119 23.1383H77.8754Z" fill="white" fill-opacity="0.1"/>
</svg>
