<svg width="46" height="45" viewBox="0 0 46 45" fill="none" xmlns="http://www.w3.org/2000/svg">
<rect x="0.93927" width="45" height="45" rx="7" fill="url(#paint0_linear_1242_653)"/>
<path d="M16.1697 24.145L18.8391 31.5336C18.8391 31.5336 19.1729 32.2249 19.5302 32.2249C19.8876 32.2249 25.2031 26.6952 25.2031 26.6952L31.114 15.2783L16.2649 22.2378L16.1697 24.145Z" fill="#C8DAEA"/>
<path d="M19.7092 26.04L19.1967 31.4862C19.1967 31.4862 18.9822 33.1549 20.6506 31.4862C22.319 29.8174 23.9159 28.5306 23.9159 28.5306" fill="#A9C6D8"/>
<path d="M16.2179 24.4085L10.7268 22.6194C10.7268 22.6194 10.0705 22.3532 10.2819 21.7494C10.3254 21.6249 10.4131 21.519 10.6756 21.3369C11.8923 20.4889 33.1955 12.8319 33.1955 12.8319C33.1955 12.8319 33.797 12.6292 34.1517 12.764C34.2395 12.7912 34.3185 12.8412 34.3806 12.9089C34.4427 12.9766 34.4857 13.0596 34.5052 13.1494C34.5435 13.3079 34.5595 13.4711 34.5528 13.634C34.5511 13.775 34.534 13.9057 34.5211 14.1107C34.3914 16.2041 30.5086 31.8281 30.5086 31.8281C30.5086 31.8281 30.2763 32.7424 29.444 32.7737C29.2394 32.7803 29.0357 32.7456 28.8448 32.6718C28.6539 32.598 28.4799 32.4865 28.333 32.3439C26.6997 30.939 21.0545 27.1451 19.807 26.3107C19.7789 26.2916 19.7552 26.2666 19.7375 26.2375C19.7199 26.2084 19.7087 26.1758 19.7047 26.142C19.6872 26.054 19.7829 25.9451 19.7829 25.9451C19.7829 25.9451 29.6127 17.2076 29.8743 16.2904C29.8945 16.2193 29.818 16.1842 29.7153 16.2154C29.0624 16.4555 17.7445 23.6029 16.4954 24.3917C16.4055 24.4189 16.3105 24.4246 16.2179 24.4085Z" fill="white"/>
<defs>
<linearGradient id="paint0_linear_1242_653" x1="23.4393" y1="45" x2="23.4393" y2="0" gradientUnits="userSpaceOnUse">
<stop stop-color="#1D93D2"/>
<stop offset="1" stop-color="#38B0E3"/>
</linearGradient>
</defs>
</svg>
