<svg width="45" height="45" viewBox="0 0 45 45" fill="none" xmlns="http://www.w3.org/2000/svg">
<path fill-rule="evenodd" clip-rule="evenodd" d="M6.93415 0H38.0658C41.8953 0 45 3.10455 45 6.93415V38.0658C45 41.8953 41.8953 45 38.0658 45H6.93415C3.10455 45 0 41.8953 0 38.0658V6.93415C0 3.10455 3.10455 0 6.93415 0Z" fill="#4C75A3"/>
<path fill-rule="evenodd" clip-rule="evenodd" d="M22.1224 31.5014H23.9632C23.9632 31.5014 24.5191 31.4401 24.8033 31.1343C25.0645 30.8532 25.0562 30.3258 25.0562 30.3258C25.0562 30.3258 25.0202 27.8558 26.1663 27.4921C27.2967 27.1336 28.7478 29.8792 30.2857 30.935C31.4488 31.7337 32.3326 31.5589 32.3326 31.5589L36.4454 31.5014C36.4454 31.5014 38.5967 31.3687 37.5765 29.6771C37.493 29.539 36.9823 28.4259 34.5185 26.139C31.9395 23.7455 32.2852 24.1327 35.3916 19.9924C37.2834 17.471 38.0396 15.9317 37.8033 15.2725C37.5782 14.6444 36.1866 14.8103 36.1866 14.8103L31.556 14.8389C31.556 14.8389 31.2125 14.7922 30.9581 14.9444C30.7092 15.0933 30.5494 15.4412 30.5494 15.4412C30.5494 15.4412 29.8163 17.3922 28.8392 19.0518C26.7772 22.553 25.9526 22.7383 25.6156 22.5206C24.8314 22.0138 25.0273 20.4852 25.0273 19.3989C25.0273 16.0057 25.542 14.5909 24.0251 14.2247C23.5218 14.1032 23.151 14.0229 21.8637 14.0097C20.2113 13.9929 18.8132 14.0148 18.0213 14.4027C17.4945 14.6607 17.088 15.2355 17.3357 15.2686C17.6418 15.3093 18.3348 15.4556 18.7022 15.9556C19.1769 16.6014 19.1603 18.051 19.1603 18.051C19.1603 18.051 19.433 22.0454 18.5235 22.5414C17.8994 22.8817 17.0431 22.187 15.2048 19.0104C14.263 17.3833 13.5518 15.5846 13.5518 15.5846C13.5518 15.5846 13.4148 15.2485 13.1701 15.0686C12.8734 14.8506 12.4589 14.7815 12.4589 14.7815L8.0584 14.8103C8.0584 14.8103 7.39797 14.8287 7.15527 15.116C6.93936 15.3717 7.13803 15.8999 7.13803 15.8999C7.13803 15.8999 10.5829 23.9597 14.4838 28.0214C18.0611 31.7458 22.1224 31.5014 22.1224 31.5014Z" fill="white"/>
</svg>
